<?xml version="1.0" standalone="no"?>
<!DOCTYPE svg PUBLIC "-//W3C//DTD SVG 1.1//EN" "http://www.w3.org/Graphics/SVG/1.1/DTD/svg11.dtd" >
<svg xmlns="http://www.w3.org/2000/svg" xmlns:xlink="http://www.w3.org/1999/xlink" version="1.1">
<metadata></metadata>
<defs>
<font id="kiddy_kittylight_italic" horiz-adv-x="1183" >
<font-face units-per-em="2048" ascent="1536" descent="-512" />
<missing-glyph horiz-adv-x="626" />
<glyph unicode="&#xfb04;" horiz-adv-x="1955" d="M-188 -451q2 41 40 111.5t74 81.5q70 -39 129 -39q71 0 109 67.5t76 223.5q144 591 217 870l-144 -14q-11 9 5 85.5t36 96.5l148 -10q65 244 185.5 352.5t291.5 108.5q167 0 319 -78q106 78 248 78q97 0 216.5 -24t176.5 -52l-274 -1071q-20 -77 10.5 -115.5t98 -31.5 t153.5 57q26 -19 29 -70.5t-29 -97.5q-38 -49 -117.5 -80t-164.5 -31q-284 0 -213 303l247 1022q-72 17 -149 17q-90 0 -152.5 -68t-107.5 -227l196 12q7 -39 -8.5 -97.5t-40.5 -86.5l-190 18q-50 -186 -133.5 -516.5t-108.5 -425.5q-18 -72 -37 -129t-49 -115t-66 -96 t-88.5 -62t-115.5 -24q-136 0 -232 57q2 43 42 114.5t75 78.5q73 -39 115 -39q30 0 53.5 13t41 34.5t33.5 60.5t28 79t28 102q196 781 217 860l-379 8q-52 -196 -141.5 -552.5t-97.5 -387.5q-24 -96 -54 -169.5t-72.5 -134t-100 -92.5t-128.5 -32q-61 0 -131.5 16t-113.5 41 zM694 1014l381 10q37 137 84 217q-71 68 -207 68q-88 0 -151 -68.5t-107 -226.5z" />
<glyph horiz-adv-x="0" />
<glyph horiz-adv-x="682" />
<glyph unicode=" "  horiz-adv-x="626" />
<glyph unicode="&#x09;" horiz-adv-x="626" />
<glyph unicode="&#xa0;" horiz-adv-x="626" />
<glyph unicode="!" horiz-adv-x="630" d="M160 88q0 72 55.5 126t120.5 54q47 0 80 -36.5t33 -90.5q0 -69 -57 -121.5t-120 -52.5q-49 0 -80.5 34.5t-31.5 86.5zM295 420l154 1024q118 17 176.5 16.5t173.5 -14.5l-328 -1006q-47 -12 -62.5 -15t-53.5 -7t-60 2z" />
<glyph unicode="&#x22;" horiz-adv-x="811" d="M344 995l76 430q24 29 83 42.5t110.5 8t58.5 -25.5l-164 -473q-4 -12 -48 -18t-83.5 3t-32.5 33zM678 1040l113 385q34 41 127 50q73 7 91 -13q5 -5 3 -12l-148 -422q-5 -15 -77 -21q-89 -8 -107 17q-5 7 -2 16z" />
<glyph unicode="#" horiz-adv-x="1691" d="M141.5 459.5q16.5 68.5 53.5 103.5h280l139 371h-288q-24 24 -7 90t54 102h311l115 310q34 8 101.5 11.5t100.5 -9.5l-112 -312h385l115 310q44 25 110.5 25t89.5 -23l-112 -312h319q26 -24 9.5 -99t-56.5 -93h-342l-135 -371h346q22 -31 2.5 -100.5t-51.5 -87.5h-365 l-139 -383q-35 -18 -111.5 -16t-99.5 18l141 381h-377l-139 -383q-3 -12 -95.5 -13t-117.5 15l142 381h-263q-20 16 -3.5 84.5zM684 563h381l137 371h-383z" />
<glyph unicode="$" horiz-adv-x="989" d="M133 88q-4 48 38.5 118t98.5 113q58 -73 109.5 -103t136.5 -30q110 0 173 66.5t63 153.5q0 72 -42 119t-122 96l-64 38q-86 53 -136 119t-50 166q0 156 103 261t286 118l23 215q26 7 96.5 6.5t99.5 -10.5l-65 -213q137 -15 268 -82q-10 -64 -47.5 -125.5t-87.5 -75.5 q-124 97 -266 97q-99 0 -156 -39.5t-57 -112.5q0 -29 11.5 -55t36.5 -49.5t45 -38.5t56 -39q55 -37 87 -60t74 -61t64.5 -71.5t39 -80t16.5 -98.5q0 -90 -48 -178.5t-145 -157t-221 -88.5l-21 -205q-55 -28 -107.5 -26t-98.5 26l71 203q-169 22 -262 84z" />
<glyph unicode="%" horiz-adv-x="1714" d="M209 45l1374 1432q11 10 48.5 -11t69.5 -53.5t28 -50.5l-1360 -1432q-22 -8 -60.5 12.5t-68 52t-31.5 50.5zM345 1019q0 67 26 144q46 143 164.5 225.5t277.5 81.5q100 -1 162.5 -44.5t77 -114t-5.5 -160.5q-44 -171 -155 -271.5t-269 -99.5q-97 1 -161 32.5t-90.5 85.5 t-26.5 121zM531 993q30 -51 122 -63q66 -7 131.5 47t94.5 139q67 197 -111 211q-77 8 -142.5 -42t-93.5 -138q-31 -103 -1 -154zM967 212q0 67 26 144q44 143 163 226t278 82q100 -1 162.5 -45t76.5 -114.5t-6 -160.5q-44 -172 -154 -272t-268 -99q-97 1 -161 32.5 t-90.5 85.5t-26.5 121zM1153 182.5q29 -48.5 121 -59.5q66 -9 130.5 45.5t94.5 140.5q33 91 5.5 141.5t-120.5 59.5q-76 6 -139 -42t-90 -136q-31 -101 -2 -149.5z" />
<glyph unicode="&#x26;" horiz-adv-x="1560" d="M139 238q0 274 334 495q-59 139 -59 271q0 107 42.5 195.5t113.5 143.5t158 85t179 30q141 0 216 -63.5t75 -177.5q0 -62 -26 -122.5t-66.5 -109t-102.5 -99t-119.5 -87.5t-133.5 -80q86 -147 231 -285q66 97 137 271l461 71q7 -16 -37.5 -102t-71.5 -90l-243 -6 q-29 -61 -73 -129t-83 -113q170 -162 395 -346q-25 -16 -87 -31.5t-126.5 -20t-103.5 14.5q-31 17 -75.5 53.5t-73 62.5t-95.5 89q-108 -99 -215 -144t-241 -45q-151 0 -230.5 71.5t-79.5 197.5zM336 276q0 -50 15.5 -85.5t42 -53t52.5 -24.5t56 -7q151 0 317 148 q-186 193 -282 350q-201 -161 -201 -328zM600 1055q0 -108 76 -236q47 26 84.5 49t88.5 62t84.5 75.5t58 85t24.5 95.5q0 69 -46 101t-114 32q-103 0 -179.5 -74t-76.5 -190z" />
<glyph unicode="'" horiz-adv-x="503" d="M346 995l76 430q24 29 84.5 42.5t111.5 8t52 -25.5l-164 -475q-5 -12 -48 -17.5t-81 4t-31 33.5z" />
<glyph unicode="(" horiz-adv-x="675" d="M186 150q0 185 38.5 365t103.5 327t151.5 274.5t181 219.5t193.5 151q58 -32 76 -96q-93 -83 -169 -172.5t-148 -207.5t-120.5 -247.5t-78 -293t-29.5 -343.5q0 -151 25 -301.5t77 -253.5q-49 -73 -153 -84q-65 89 -106.5 268.5t-41.5 393.5z" />
<glyph unicode=")" horiz-adv-x="655" d="M-41 -399q137 99 256.5 298.5t193.5 459.5t74 511q0 175 -28.5 311.5t-73.5 196.5q19 35 58.5 57.5t78.5 24.5q75 -82 120.5 -240.5t45.5 -373.5q0 -905 -653 -1354q-85 17 -72 109z" />
<glyph unicode="*" horiz-adv-x="952" d="M293 948l199 121l120 -123l-196 -219q-39 -4 -73 36t-48 94t-2 91zM326 1171q-12 38 67.5 131t138.5 105l130 -129l-107 -182zM600 879l182 129l140 -189q-7 -32 -55.5 -67t-110.5 -51.5t-101 -0.5zM696 1221l41 256q38 28 134 8.5t118 -60.5l-108 -213zM823 1147 l269 121q28 -15 31 -68t-12.5 -108.5t-39.5 -83.5l-219 -35z" />
<glyph unicode="+" horiz-adv-x="1247" d="M336.5 736q0.5 95 13.5 98l342 -9l51 357q6 19 99 19.5t123 -15.5l-109 -363l358 17q13 -9 18.5 -46.5t-1.5 -80t-25 -60.5l-375 2l-47 -350q-11 -20 -105 -23t-99 19l84 352l-312 -14q-16 2 -15.5 97z" />
<glyph unicode="," horiz-adv-x="610" d="M78 -299q153 100 233 276q-50 -8 -87 2.5t-55.5 35t-27 51.5t-8.5 57q0 93 73.5 157t160.5 64q66 0 117 -52.5t51 -141.5q0 -120 -97.5 -262.5t-247.5 -262.5q-49 -8 -79 16.5t-33 59.5z" />
<glyph unicode="-" horiz-adv-x="747" d="M272 442q-6 52 1.5 91t29.5 100l414 16q-2 -59 -11 -97t-40 -89z" />
<glyph unicode="." horiz-adv-x="608" d="M133 121q0 83 75.5 150t168.5 67q70 0 116 -47.5t46 -112.5q0 -84 -75 -150.5t-167 -66.5q-71 0 -117.5 47.5t-46.5 112.5z" />
<glyph unicode="/" horiz-adv-x="919" d="M-197 -436l1225 1980q11 18 74.5 -10.5t83.5 -63.5l-1215 -1964q-28 -13 -98 8.5t-70 49.5z" />
<glyph unicode="0" horiz-adv-x="1304" d="M227 422q0 153 34 305t101 287.5t158 240t214 166t261 62.5q194 1 288.5 -125.5t94.5 -353.5q0 -159 -32.5 -312t-97.5 -285t-153.5 -232.5t-207.5 -158t-254 -57.5q-212 0 -309 114t-97 349zM469 487q0 -136 50 -219.5t163 -83.5q99 0 181.5 56.5t135 143.5t89 197 t52 212t15.5 192q0 133 -51 206t-170 73q-106 0 -195.5 -68t-147.5 -179.5t-90 -249t-32 -280.5z" />
<glyph unicode="1" horiz-adv-x="823" d="M41 -2q-13 6 4 88t39 98l231 -12l271 1024l-170 -166q-40 6 -73 65t-30 97l400 295q47 -4 76.5 -32t35.5 -71l-290 -1226l268 -13q6 -30 -14.5 -79t-45.5 -66z" />
<glyph unicode="2" horiz-adv-x="1054" d="M51 -6l60 213q475 352 663.5 554t188.5 369q0 84 -44 121t-128 37q-59 0 -132.5 -29t-124.5 -60.5t-131 -86.5q-27 5 -58.5 84t-16.5 111q138 90 266 133t299 43q75 0 132.5 -25t91 -68.5t50.5 -96t17 -113.5q0 -58 -12 -115.5t-37 -112t-54.5 -105t-74.5 -103t-86 -96.5 t-100.5 -94.5t-106.5 -88.5t-115 -87.5t-114.5 -82t-116.5 -80.5l606 61q28 -48 1.5 -140t-73.5 -136z" />
<glyph unicode="3" horiz-adv-x="1081" d="M72 80q12 51 53 112.5t84 88.5q49 -38 80.5 -58t91.5 -39.5t129 -19.5q150 0 254 83t104 226q0 79 -52 134t-134 79t-186 23l-21 110l541 447l-567 -29q-34 27 -26 97t46 108l807 12q-8 -141 -10 -168l-561 -436q179 -11 284 -104.5t105 -260.5q0 -97 -41 -184.5 t-105.5 -148t-143 -105.5t-153.5 -66.5t-137 -21.5q-270 0 -442 121z" />
<glyph unicode="4" horiz-adv-x="1228" d="M199 664l829 823l229 -10l-186 -807l232 16q18 -38 -1.5 -105t-54.5 -108l-252 2l-102 -481q-28 -15 -117.5 -18.5t-116.5 16.5l142 477l-568 -2zM446 649l420 6l164 648z" />
<glyph unicode="5" horiz-adv-x="1073" d="M47 80q11 49 54.5 111.5t88.5 89.5q39 -30 59.5 -44t59.5 -35.5t82 -30.5t94 -9q150 0 243 86.5t93 232.5q0 61 -24.5 105t-65.5 70.5t-107.5 42.5t-137.5 21.5t-169 6.5l179 717h784q21 -63 -18 -134t-101 -102l-497 31l-78 -336q220 2 345.5 -97.5t125.5 -277.5 q0 -105 -39 -199t-100.5 -160t-138 -114.5t-152.5 -72t-142 -23.5q-154 0 -255.5 32t-182.5 89z" />
<glyph unicode="6" horiz-adv-x="1187" d="M215 383q0 224 84 425.5t221 341t316 221t366 81.5q69 0 160 -16q21 -35 6.5 -91t-47.5 -94q-28 6 -107 6q-237 0 -435.5 -140.5t-272.5 -356.5q9 6 44.5 30t48 31.5t44 26t52 25.5t52.5 17t65 13.5t71 3.5q159 0 241 -95.5t82 -258.5q0 -153 -86 -291t-226.5 -220.5 t-293.5 -82.5q-385 0 -385 424zM440 397q0 -102 51 -168.5t156 -66.5q132 0 230 100t98 258q0 97 -59 150t-156 53q-51 0 -136 -31.5t-120 -58.5q-2 -5 -17.5 -33t-23 -47t-15.5 -62t-8 -94z" />
<glyph unicode="7" horiz-adv-x="964" d="M217 23q96 314 330 677t454 533q-573 -45 -616 -49q-47 125 37 260h805l12 -146q-178 -172 -313.5 -343t-226 -337t-148 -317.5t-98.5 -320.5q-56 -29 -91 -29q-55 0 -98.5 21t-46.5 51z" />
<glyph unicode="8" horiz-adv-x="1124" d="M160 276q0 77 26.5 142.5t82.5 123.5t116.5 103t155.5 103q-138 134 -138 290q0 123 73.5 225t192 158t253.5 56q89 0 156.5 -24.5t106 -66.5t57 -92t18.5 -108q0 -153 -86.5 -260t-288.5 -195q49 -38 84 -70t68.5 -74.5t51 -91t17.5 -102.5q0 -110 -70.5 -209 t-197.5 -161t-279 -62q-83 0 -154 19t-126.5 56.5t-87 99t-31.5 140.5zM367 338q0 -84 65 -134t166 -50q114 0 193 67t79 154q0 124 -204 264l-37 23q-130 -83 -196 -160t-66 -164zM612 1069q0 -121 191 -268q109 49 177.5 133t68.5 182q0 77 -44 125.5t-141 48.5 q-109 0 -180.5 -64.5t-71.5 -156.5z" />
<glyph unicode="9" horiz-adv-x="1189" d="M126.5 82.5q15.5 56.5 47.5 93.5q295 27 504 147.5t309 329.5q-14 -8 -60 -34.5t-69.5 -38t-66 -29t-86 -24.5t-93.5 -7q-160 0 -242.5 92.5t-82.5 257.5q0 118 51 229t134.5 191.5t194.5 129t226 48.5q204 0 294.5 -107t90.5 -306q0 -163 -44.5 -311.5t-123 -265.5 t-186.5 -212t-234.5 -156t-268.5 -92t-286 -26q-24 34 -8.5 90.5zM514 903q0 -96 59 -149.5t158 -53.5q44 0 131.5 33t122.5 58q66 136 66 237q0 104 -54 164.5t-157 60.5q-133 0 -229.5 -98t-96.5 -252z" />
<glyph unicode=":" horiz-adv-x="569" d="M127 96q0 72 65.5 130.5t139.5 58.5q56 0 94.5 -41t38.5 -99q0 -72 -64.5 -128t-138.5 -56q-57 0 -96 39.5t-39 95.5zM313 852q0 71 65.5 128.5t139.5 57.5q56 0 95.5 -40.5t39.5 -96.5q0 -72 -65 -129t-139 -57q-57 0 -96.5 40t-39.5 97z" />
<glyph unicode=";" horiz-adv-x="587" d="M98 -272q72 47 114 102.5t79 136.5q-87 -12 -124.5 28t-37.5 99q0 82 65.5 142.5t143.5 60.5q61 0 105 -47.5t44 -130.5q0 -109 -76.5 -228.5t-209.5 -230.5q-43 -10 -73 13.5t-30 54.5zM334 850q0 72 64.5 130t138.5 58q58 0 96.5 -40.5t38.5 -96.5q0 -73 -65.5 -129.5 t-139.5 -56.5q-56 0 -94.5 39.5t-38.5 95.5z" />
<glyph unicode="&#x3c;" horiz-adv-x="1093" d="M188 662l1035 602q42 -10 61 -59.5t8 -98.5l-800 -432l604 -506q-38 -145 -127 -145z" />
<glyph unicode="=" horiz-adv-x="1308" d="M338 439.5q4 25.5 29 88.5l790 17q0 -61 -7 -89.5t-40 -80.5l-770 -21q-6 60 -2 85.5zM409.5 779q4.5 31 28.5 89l791 17q2 -56 -6 -87t-39 -83l-772 -21q-7 54 -2.5 85z" />
<glyph unicode="&#x3e;" horiz-adv-x="1064" d="M35 209l856 448l-658 488q14 56 59 101.5t95 45.5l811 -620l-1096 -617q-42 7 -60 54t-7 100z" />
<glyph unicode="?" horiz-adv-x="1054" d="M326 86q0 63 56 115.5t126 52.5q54 0 88.5 -35t34.5 -88q0 -63 -57.5 -113.5t-124.5 -50.5q-54 0 -88.5 35t-34.5 84zM393.5 1213.5q-17.5 54.5 9.5 125.5q177 127 408 127q75 0 140.5 -18t119.5 -54t85.5 -99t31.5 -146q0 -79 -23.5 -143.5t-62.5 -111.5t-87.5 -88 t-102.5 -81t-102.5 -81.5t-91.5 -100t-67 -125.5q-51 -22 -113 -12t-89 40q22 69 63.5 130.5t89 107t99.5 87.5t99.5 79.5t86 75t61.5 82t23 92.5q0 70 -47 110.5t-148 40.5q-153 0 -334 -96q-31 4 -48.5 58.5z" />
<glyph unicode="@" horiz-adv-x="1923" d="M162 303q0 170 46.5 327.5t128.5 285.5t195 234t245 177.5t280.5 110.5t298.5 39q311 0 484 -159.5t173 -447.5q0 -143 -34.5 -270.5t-91.5 -220.5t-130.5 -162t-153.5 -103t-157 -34q-32 0 -58 4t-58.5 20t-52.5 43t-31 77.5t-3 119.5q-93 -136 -185 -195t-200 -59 q-100 0 -171 71t-71 214q0 115 53 237.5t136 218.5t192.5 158t216.5 62q114 0 205.5 -22.5t134.5 -57.5q-138 -516 -178 -658q-8 -33 15 -54t53 -21q93 0 176 88t132.5 232t49.5 302q0 212 -119 335.5t-350 123.5q-132 0 -265 -39t-256 -120.5t-218.5 -195t-153 -274 t-57.5 -344.5q0 -112 33.5 -200t87 -143t125.5 -91t144 -50t149 -14q141 0 309 50q43 -27 43 -95q0 -19 -4 -34t-10 -26t-7 -17q-159 -60 -379 -60q-74 0 -142 8t-140.5 28t-134 51.5t-117 81.5t-94.5 115t-61.5 155t-22.5 198zM831 401q0 -79 35.5 -116t87.5 -37 q48 0 142 92.5t149 208.5l96 332q-43 22 -77 22q-92 0 -175.5 -51t-138.5 -128t-87 -163t-32 -160z" />
<glyph unicode="A" horiz-adv-x="1363" d="M6 61l877 1366q49 16 89 19q15 1 29 1q23 0 42 -3q31 -5 87 -21l218 -1329q-56 -53 -118 -77.5t-157 -32.5l-29 428l-593 -19l-246 -416q-21 -2 -40 -2q-49 -1 -79 13q-41 18 -80 73zM561 584l465 12l-74 610z" />
<glyph unicode="B" horiz-adv-x="1251" d="M145 76l365 1323q234 63 399 63q206 0 325.5 -81.5t119.5 -217.5q0 -71 -25 -130t-75.5 -107t-114 -85.5t-152.5 -74.5q145 -23 224 -98t79 -183q0 -113 -64.5 -211.5t-170 -163.5t-239 -102t-271.5 -37q-218 0 -400 105zM377 238q98 -68 231 -68q79 0 156 20t141 57 t104 96.5t40 131.5q0 101 -111.5 153t-290.5 52q-90 0 -133 -4zM555 852q60 -8 119 -8q89 0 162 12.5t136.5 41t99.5 81t36 125.5q0 74 -62 125t-182 51q-99 0 -213 -33z" />
<glyph unicode="C" horiz-adv-x="1296" d="M213 510q0 134 31.5 254t86 212.5t128.5 170.5t159 132t177 92t182 55.5t176 17.5q123 0 225 -43.5t156 -126.5q-35 -77 -74.5 -118.5t-99.5 -51.5q-98 98 -262 98q-114 0 -226.5 -45t-203.5 -124t-148 -198.5t-57 -256.5q0 -190 110.5 -296t288.5 -106q138 0 301 66 q31 -46 31 -95t-31 -102q-214 -86 -446 -86q-124 0 -221.5 42t-158.5 117t-92.5 174.5t-31.5 217.5z" />
<glyph unicode="D" horiz-adv-x="1435" d="M133 20l342 1358q298 97 547 97q224 0 363 -142t139 -389q0 -196 -72 -378.5t-192 -316t-284.5 -214t-340.5 -80.5q-272 0 -502 65zM358 186q120 -38 236 -44q20 -1 41 0q93 0 177 20q102 26 187 86t146.5 147.5t96 211.5t34.5 272q0 236 -161 317q-78 39 -192 39 q-123 0 -288 -45z" />
<glyph unicode="E" horiz-adv-x="1196" d="M127 -10l389 1446l877 10q7 -32 7 -58q0 -20 -4 -36q-10 -38 -57 -95l-667 5l-109 -396l631 31q10 -36 10 -69q0 -18 -2 -35q-8 -49 -51 -109l-631 -6l-90 -492l719 58q16 -35 16 -71v-8q-2 -40 -16 -73.5t-45 -81.5z" />
<glyph unicode="F" horiz-adv-x="1157" d="M125 -16l389 1452l877 10q7 -30 7 -54q0 -20 -5 -36q-10 -36 -52 -94h-669l-111 -396l582 31q15 -39 15 -76q0 -13 -2 -25q-7 -48 -54 -106l-584 -10l-158 -680q-44 -42 -120 -44h-9q-69 0 -106 28z" />
<glyph unicode="G" horiz-adv-x="1335" d="M217 535q0 129 31 245t85.5 207t128 167.5t158 130.5t176 91.5t182 55.5t175.5 18q125 0 221.5 -43t151.5 -127q-32 -73 -68 -109t-115 -61q-101 98 -253 98q-106 0 -215.5 -45t-200 -122.5t-148 -194.5t-57.5 -248q0 -194 111.5 -313t296.5 -119q70 0 155 16l47 422 q50 36 141 46q22 2 42 2q63 0 106 -23l-139 -545q-276 -119 -492 -119q-123 0 -222.5 44.5t-164 122.5t-99 181t-34.5 222z" />
<glyph unicode="H" horiz-adv-x="1558" d="M131 12l414 1428q83 16 135 18q5 0 10 1q49 0 117 -13l-186 -565l749 6l92 540q77 13 131 15q7 0 14 1q49 0 115 -9l-397 -1438q-51 -10 -93 -12q-12 0 -23 -1q-26 1 -45 3q-27 4 -85 14l242 686l-778 8l-156 -661q-82 -25 -133 -29q-12 -1 -26 0q-42 0 -97 8z" />
<glyph unicode="I" horiz-adv-x="806" d="M79 86q16 52 54 88l143 -2l299 1090l-178 8q-15 19 -15 47q0 15 5 35q13 54 51 82h582q14 -27 14 -56q0 -61 -63 -131l-203 6l-248 -1093q162 -8 180 -8q18 -22 18 -53q0 -11 -2 -23q-9 -46 -48 -76h-582q-14 21 -14 47q0 18 7 39z" />
<glyph unicode="J" horiz-adv-x="677" d="M-95 -230q0 52 25 105q180 62 270.5 186t143.5 371l211 969q50 39 145 47q17 1 32 1q71 0 108 -32l-299 -1059q-74 -263 -229 -439.5t-369 -219.5q-38 19 -38 71z" />
<glyph unicode="K" horiz-adv-x="1234" d="M123 -27l340 1471q37 18 121 20h17q71 0 99 -16l-200 -680l172 43l563 639q30 3 58 3q53 0 97 -11q68 -17 89 -68l-664 -614l406 -705q-38 -49 -119 -75q-72 -23 -137 -23h-15l-309 711l-174 -15l-137 -667q-38 -20 -102 -24q-14 -1 -27 -1q-46 0 -78 12z" />
<glyph unicode="L" horiz-adv-x="1005" d="M127 -6l352 1438q60 23 153 24h9q86 0 135 -18l-373 -1237l601 49q13 -30 13 -67q-1 -29 -9 -63q-20 -76 -74 -120z" />
<glyph unicode="M" horiz-adv-x="1703" d="M20 29l615 1386q81 23 121 24h4q39 0 108 -16l113 -735l573 746q17 3 43.5 8t37.5 6.5t29.5 2t36.5 -3t42 -11.5l-137 -1397q-74 -39 -128 -52q-37 -9 -81 -9q-20 0 -43 2l104 1116l-522 -707q-22 -9 -43 -19t-30 -14.5t-24 -7.5t-36 -2l-105 778l-434 -1116 q-68 -20 -115 -20q-8 0 -16 1q-51 4 -113 40z" />
<glyph unicode="N" horiz-adv-x="1484" d="M131 14l334 1364q43 48 113 60q26 4 50 4q40 0 74 -12l451 -1215l262 1210q50 25 120 27h12q62 0 100 -25l-394 -1419q-52 -42 -97 -54q-20 -5 -42 -5q-28 0 -59 8l-471 1249l-242 -1196q-51 -22 -99 -22h-12q-54 3 -100 26z" />
<glyph unicode="O" horiz-adv-x="1484" d="M209 475q0 188 67.5 369.5t181 319.5t274.5 223t337 86h3q232 0 364 -149q134 -150 133 -398q0 -147 -47.5 -292.5t-131 -265.5t-191 -213t-235 -144.5t-255.5 -51.5q-245 0 -372.5 122t-127.5 394zM442 526q0 -72 15.5 -131t49 -109.5t96 -79t149.5 -28.5 q136 0 251.5 65.5t189.5 172.5t115.5 240.5t41.5 273.5q0 330 -344 330q-155 0 -284 -94.5t-204.5 -263.5t-75.5 -376z" />
<glyph unicode="P" horiz-adv-x="1191" d="M127 -6l358 1417q217 55 406 55q219 0 355 -106.5t136 -290.5q0 -108 -44.5 -205.5t-117.5 -168.5t-164.5 -124t-188.5 -79.5t-187 -26.5q-93 0 -205 45l-104 -506q-81 -40 -129 -42q-2 0 -4 -1q-46 0 -111 33zM535 698q86 -30 186 -30q121 0 222 45t161.5 127.5 t60.5 185.5q0 105 -80 171.5t-225 66.5q-108 0 -213 -31z" />
<glyph unicode="Q" horiz-adv-x="1480" d="M211 483q0 127 31 252t87 233.5t135.5 202t173.5 160t205 104.5t226 38h3q229 0 360 -147t131 -402q0 -280 -157.5 -517t-412.5 -368q31 -56 154 -130.5t241.5 -126.5t186.5 -71q-14 -51 -101 -109q-75 -49 -127 -49q-8 0 -16 1q-74 12 -187.5 79.5t-218 159.5 t-155.5 170q-40 -4 -63 -4q-244 0 -370 122t-126 402zM438 518q0 -72 15 -132.5t48 -113.5t95.5 -83.5t148.5 -30.5q108 0 204.5 44t167 119.5t122.5 172.5t78 205t26 216q0 76 -17.5 136t-56 108.5t-106.5 74.5t-162 26q-158 0 -287.5 -97.5t-202.5 -267.5t-73 -377z" />
<glyph unicode="R" horiz-adv-x="1280" d="M127 -8l356 1419q214 55 406 55q238 0 370 -88.5t132 -267.5q0 -105 -37 -196t-101 -157.5t-138.5 -114t-160.5 -79.5q18 -81 127 -261.5t168 -231.5q-40 -56 -121 -94q-53 -24 -99 -24q-25 0 -48 7q-60 59 -138.5 253t-90.5 306q-28 -2 -57 -2q-97 0 -212 25l-110 -535 q-63 -43 -129 -46h-10q-59 0 -107 32zM543 733q104 -35 211 -35q174 0 292.5 89.5t118.5 234.5q0 108 -79 175t-226 67q-104 0 -215 -31z" />
<glyph unicode="S" horiz-adv-x="1105" d="M106 74q3 72 47.5 147t106.5 123q59 -89 124.5 -128.5t166.5 -39.5q139 0 221 76t82 172q0 48 -20 88.5t-58.5 73.5t-73 55.5t-85.5 51t-74 44.5q-39 27 -60.5 43t-53 46t-48 58.5t-29 71t-12.5 91.5q0 189 135 312.5t363 123.5q291 0 444 -97q-5 -65 -50 -138.5 t-104 -98.5q-135 131 -299 131q-121 0 -192.5 -50.5t-71.5 -142.5q0 -57 43.5 -101.5t136.5 -102.5q144 -90 193 -131q122 -102 140 -235q3 -25 3 -52q0 -66 -26.5 -136t-78 -133.5t-120.5 -114t-161.5 -80.5t-192.5 -30q-249 0 -396 103z" />
<glyph unicode="T" horiz-adv-x="1150" d="M282 1327q12 48 52 117l1161 -10q1 -15 1 -30q0 -46 -10 -82q-13 -47 -52 -116l-461 15l-246 -1209q-61 -16 -97 -22q-21 -3 -43 -3q-17 0 -35 2q-42 4 -85 23l297 1221l-481 -23q-7 36 -7 67q0 27 6 50z" />
<glyph unicode="U" horiz-adv-x="1452" d="M246 311q-3 27 -3 57q0 70 19 154l199 889q59 31 121 37q12 1 23 1q49 0 93 -19l-196 -803q-34 -143 -34 -246v-19q4 -108 71.5 -164.5t205.5 -56.5q78 0 142 25t109.5 67t83 107t62.5 134t48 159l207 801q41 12 96 12h31q74 -4 100 -29l-240 -872q-79 -283 -272 -430.5 t-438 -147.5q-81 0 -151.5 19.5t-131.5 61t-97 106.5t-48 157z" />
<glyph unicode="V" horiz-adv-x="1280" d="M326 1376q36 39 105 56.5t140 17.5l95 -1196l700 1192q35 4 67 4q43 0 81 -6q68 -12 96 -49l-860 -1383q-51 -29 -130 -29h-5q-82 1 -130 31z" />
<glyph unicode="W" horiz-adv-x="1902" d="M338 1343q34 51 120 91q59 27 102 28q20 0 36 -6l-12 -1286l503 1034q43 50 118 74q48 15 95 15q26 0 52 -5l80 -1069l532 1245q23 4 45 4q52 0 102 -21q72 -30 91 -81l-699 -1364q-57 -39 -142 -39q-3 1 -7 1q-90 2 -135 36l-45 1032l-529 -1040q-60 -31 -127 -31 q-5 1 -10 1q-72 2 -119 32z" />
<glyph unicode="X" horiz-adv-x="1196" d="M27 18l555 646l-240 643q47 47 113 89t133 58l188 -606l500 612q55 -8 93 -29.5t61 -66.5l-558 -641l304 -657q-84 -65 -256 -117l-222 602l-528 -608q-94 26 -143 75z" />
<glyph unicode="Y" horiz-adv-x="1200" d="M317 1335q26 45 104 93q65 40 118 40q11 0 22 -2l215 -770l549 772q21 5 41 5q47 0 87 -27q57 -40 79 -92q0 1 -172 -201.5t-344 -404.5l-172 -203l-109 -551q-60 -25 -139 -26q-4 -1 -8 -1q-73 0 -119 27l152 557z" />
<glyph unicode="Z" horiz-adv-x="1140" d="M78 125l1018 1122l-699 -37q-18 14 -16 57t15.5 93t29.5 80l948 -8l-4 -113l-1026 -1104l721 16q21 -30 21 -73q0 -18 -4 -39q-12 -70 -58 -115l-928 -4z" />
<glyph unicode="[" horiz-adv-x="796" d="M55 -406l467 1854q90 16 238 18.5t256 -14.5q17 -33 -7 -94t-57 -94q-69 20 -245 20l-410 -1501q68 0 163 7.5t150 19.5q10 -26 -10 -102.5t-49 -113.5q-129 -17 -271.5 -15t-224.5 15z" />
<glyph unicode="\" horiz-adv-x="954" d="M346 1473q34 34 105.5 60t83.5 11l346 -1526q-14 -28 -90.5 -47t-104.5 -6z" />
<glyph unicode="]" horiz-adv-x="782" d="M10 -383q-16 33 6 94.5t54 93.5q68 -18 270 -18l365 1479q-209 0 -306 -25q-11 26 6.5 100t45.5 109q124 18 268 16.5t231 -14.5l-424 -1831q-84 -16 -247 -19t-269 15z" />
<glyph unicode="^" horiz-adv-x="1171" d="M330 963l485 540q46 31 120.5 29.5t84.5 -27.5q231 -534 231 -536q-11 -19 -48 -35.5t-76.5 -23.5t-73 -7t-37.5 10l-131 451l-314 -446q-39 -21 -90.5 -18t-97.5 22.5t-53 40.5z" />
<glyph unicode="_" horiz-adv-x="1550" d="M82 -16q-6 57 0 94.5t29 97.5l1405 17q0 -58 -9.5 -97t-40.5 -92z" />
<glyph unicode="`" horiz-adv-x="663" d="M494 1481q29 17 88 27.5t108.5 5.5t48.5 -29l37 -283q-32 -51 -121 -22z" />
<glyph unicode="a" d="M170 340q0 155 52 290.5t136.5 226t193 142.5t222.5 52q85 0 152 -29.5t98 -69.5l68 82q20 10 51 10h14q41 -2 53 -20q-182 -691 -182 -774q0 -62 29 -76q18 -9 49 -9q19 0 43 3q9 -10 9 -28q0 -24 -15 -62q-26 -68 -66 -96q-25 -2 -78 -2q-82 0 -119.5 47t-37.5 118 q-90 -93 -170 -135.5t-195 -42.5q-61 0 -115 22t-97.5 65.5t-69 117t-25.5 168.5zM377 406q0 -114 48 -181t144 -67q110 0 281 127l129 508q-38 38 -101.5 63t-132.5 25q-147 0 -257.5 -139t-110.5 -336z" />
<glyph unicode="b" horiz-adv-x="1239" d="M217 270v19q0 62 16 139l238 958q39 28 109 28h2q71 0 108 -25l-141 -515q221 142 409 142q158 0 241 -96t83 -256q0 -141 -53 -270.5t-144 -226.5t-221 -154.5t-276 -57.5q-48 0 -96 10.5t-97 33t-86 59.5t-63 89.5t-29 122.5zM450 380q0 -10 -1 -19q0 -45 10 -77 q12 -38 31.5 -64.5t49.5 -40.5t60 -19.5t66 -5.5q88 0 164 41t126.5 108t79.5 153.5t29 178.5t-48.5 148.5t-146.5 56.5q-84 0 -168 -36t-190 -108l-43 -184q-17 -74 -19 -132z" />
<glyph unicode="c" horiz-adv-x="1048" d="M180 389q0 123 36 229t97 181t140.5 130t165.5 83t174 32q22 1 42 1q61 0 109 -9q65 -12 104 -33t65.5 -54t37.5 -63t18 -69q-36 -109 -198 -147q-2 88 -48.5 135t-140.5 47q-155 0 -267 -117t-112 -291q0 -115 69 -185q68 -71 196 -77h19q122 0 294 76q9 -39 9 -67 q0 -11 -2 -19q-4 -34 -34 -86q-163 -104 -374 -104q-107 0 -187 34.5t-125 93.5t-66.5 129t-21.5 150z" />
<glyph unicode="d" horiz-adv-x="1294" d="M172 348q0 184 69.5 331.5t207 236t319.5 88.5q83 0 149.5 -22t145.5 -64l166 583q41 25 101 31q12 1 22 1q45 0 78 -20q-43 -160 -135 -476.5t-135.5 -487.5t-43.5 -240q0 -88 37 -115q29 -21 75 -21q12 0 25 1q13 -14 13 -40q0 -16 -5 -36q-12 -54 -49 -100 q-49 -16 -133 -16q-92 0 -136.5 36t-63.5 117q-72 -72 -165 -112.5t-177 -40.5q-176 0 -270.5 92.5t-94.5 273.5zM387 401q0 -111 52.5 -176t150.5 -65q72 0 163.5 48.5t170.5 121.5l114 430q-130 92 -274 92q-108 0 -196 -66t-134.5 -168.5t-46.5 -216.5z" />
<glyph unicode="e" horiz-adv-x="1095" d="M180 389q0 140 56 264t149 210t215.5 136t253.5 50q81 0 144 -16t100.5 -40.5t61 -57.5t32 -64t8.5 -64q0 -81 -29 -145t-78.5 -104t-116.5 -67t-139.5 -38t-152.5 -13h-27q-66 0 -125 6q-71 8 -139 21q-9 -42 -9 -79q0 -82 44 -139q62 -83 225 -83q169 0 340 131 q26 -23 38 -43.5t10 -55t-25 -79.5q-200 -142 -416 -142q-30 0 -59 3q-165 14 -263 120.5t-98 288.5zM416 602q32 -8 95 -16q59 -7 137 -8h10q84 0 159 13t126.5 51t51.5 99q0 109 -164 109q-92 0 -167.5 -22.5t-124 -60t-78.5 -78.5t-45 -87z" />
<glyph unicode="f" horiz-adv-x="823" d="M-193 -451q2 42 41.5 112t75.5 81q70 -39 127 -39q70 0 109 67.5t76 221.5q148 609 217 872l-140 -14q-5 3 -5 19q0 21 10 67q15 78 34 96l146 -10q64 240 190.5 350.5t296.5 110.5q135 0 238 -70q-6 -43 -45 -96t-80 -70q-34 39 -64.5 52.5t-77.5 13.5q-92 0 -156.5 -70 t-107.5 -229l312 18q1 -9 1 -19q0 -34 -15 -79q-20 -57 -46 -86l-295 12q-50 -186 -131.5 -514.5t-105.5 -421.5q-19 -74 -38.5 -132t-50.5 -116.5t-67.5 -97t-88.5 -62.5t-114 -24q-60 0 -131.5 16t-114.5 41z" />
<glyph unicode="g" horiz-adv-x="1189" d="M4 -301q0 115 79 205t200 139q-58 39 -87.5 117t-29.5 182q0 143 49.5 268t132 210.5t193 134.5t231.5 49q54 0 103 -12t75.5 -24.5t79.5 -40.5q11 -6 17 -9l38 102q42 28 104 33q10 1 19 1q49 0 82 -22q-126 -478 -221 -915q-78 -357 -234.5 -517.5t-451.5 -160.5 q-71 0 -136 14.5t-120.5 44.5t-89 81.5t-33.5 119.5zM203 -231q0 -68 59 -105t164 -37q99 0 175 35t130 105t91 159.5t65 212.5q-171 -157 -363 -157q-71 0 -137 16q-84 -44 -134 -104.5t-50 -124.5zM381 401q0 -110 53.5 -174.5t157.5 -64.5q76 0 168.5 47.5t169.5 128.5 l90 418q-125 94 -256 94q-103 0 -192.5 -64.5t-140 -167.5t-50.5 -217z" />
<glyph unicode="h" horiz-adv-x="1259" d="M141 0l359 1421q34 33 98 49q40 10 78 11q23 0 45 -4l-162 -582q107 83 193 118.5t184 35.5q72 0 124.5 -17.5t81.5 -50t45 -72.5q16 -39 17 -91v-14q0 -44 -6 -86q-6 -48 -20 -104l-99 -385q-2 -10 -3 -19q0 -38 47 -41q10 -1 19 -1q45 0 81 16q9 -12 9 -34 q0 -15 -4 -34q-9 -49 -40 -85q-78 -54 -211 -54q-77 1 -117 45q-26 29 -26 75q0 26 8 57q7 30 50.5 182.5t72.5 265.5q17 68 17 116q0 46 -16 74q-32 56 -139 56q-73 0 -148 -38.5t-169 -117.5l-158 -692q-46 -19 -108 -21h-10q-55 0 -93 21z" />
<glyph unicode="i" horiz-adv-x="632" d="M203 172l203 848q71 14 114 14h2q42 0 109 -22l-170 -670q-20 -70 -20 -110q1 -28 9 -42q11 -19 45 -19q30 0 76 15q12 -14 12 -40q-1 -16 -5 -36q-12 -53 -43 -96q-87 -41 -180 -41h-13q-88 3 -126 53q-23 30 -22 78q0 30 9 68zM463 1337q0 71 59 125t127 54 q51 0 83 -33.5t32 -79.5q0 -59 -34.5 -103t-77 -62.5t-81.5 -18.5q-49 0 -78.5 36.5t-29.5 81.5z" />
<glyph unicode="j" horiz-adv-x="743" d="M-106 -281q0 74 27 143t85.5 136.5t160.5 128.5t241 109q96 396 147 782q35 19 119 20h9q75 0 99 -16q-28 -116 -86.5 -358t-104 -426.5t-89.5 -350.5q-24 -90 -51.5 -153.5t-69.5 -116.5t-102.5 -79.5t-141.5 -26.5q-48 0 -89.5 10.5t-77 33t-56 64.5t-20.5 100z M96 -215q0 -76 68 -76q65 0 105.5 67t84.5 247q3 13 9.5 36.5t9.5 36.5q-118 -64 -197.5 -152t-79.5 -159zM610 1337q0 71 60.5 125t126.5 54q50 0 81 -33.5t31 -77.5q0 -60 -34.5 -104.5t-76.5 -63t-79 -18.5q-48 0 -78.5 36.5t-30.5 81.5z" />
<glyph unicode="k" horiz-adv-x="1105" d="M143 8l349 1391q30 34 116 50q35 7 60 7q36 0 51 -14l-144 -527q208 150 369 150q103 0 158 -47.5t55 -134.5q0 -78 -39.5 -150.5t-104 -127t-140 -94.5t-154.5 -62q18 -51 30 -82t31.5 -70t39.5 -62.5t48.5 -43.5t63.5 -29q20 -3 39 -3q65 0 116 40q23 -1 27 -35 q1 -8 1 -16q0 -28 -10 -61q-13 -43 -34 -67q-70 -53 -168 -53q-145 0 -219.5 99.5t-130.5 328.5q-1 3 -7.5 3.5t-19.5 -0.5t-26 -2.5t-32 -4.5t-32 -4l-78 -369q-30 -32 -110 -36q-10 -1 -20 0q-63 0 -85 26zM465 508q58 6 123 22t133.5 43.5t123 62t89.5 82t35 99.5 q0 90 -117 90q-125 0 -320 -145z" />
<glyph unicode="l" horiz-adv-x="731" d="M211 297l283 1104q40 37 118 53q37 7 63 7q28 0 42 -9l-271 -1083q-14 -53 -14 -90q0 -29 8 -47q18 -44 84 -44q85 0 176 60q26 -18 30 -65v-11q0 -42 -23 -86q-48 -60 -125 -89.5t-162 -29.5q-154 -1 -204 79q-26 42 -26 110q0 61 21 141z" />
<glyph unicode="m" horiz-adv-x="1849" d="M141 0q29 118 90 342.5t92.5 368t51.5 305.5q35 32 101 38q16 2 30 1q44 0 67 -15l-20 -170q103 95 189 137t204 42q110 1 166 -53q49 -46 48 -132q0 -14 -1 -28q112 111 208.5 162t215.5 51q242 0 242 -241q0 -81 -27 -190l-96 -376q-4 -15 -4 -28q0 -47 55 -47 q23 0 57 9q7 -9 7 -30q1 -19 -5 -47q-12 -60 -32 -83q-53 -43 -150 -43q-81 0 -118 26q-36 25 -38 79q0 4 -1 8q0 52 20 129l94 371q17 74 17 126q0 48 -14 76q-30 60 -124 60q-76 0 -164.5 -57t-146.5 -132l-8 -34l-154 -621q-62 -30 -117 -31h-4q-52 0 -77 23l141 598 q15 72 15 122q1 48 -13 76q-28 58 -119 58q-171 0 -323 -205l-146 -645q-47 -19 -108 -21h-10q-54 0 -91 21z" />
<glyph unicode="n" horiz-adv-x="1259" d="M141 0q29 118 90 342.5t92.5 368t51.5 305.5q33 32 99 38q16 2 31 1q43 0 66 -15l-24 -178q116 98 206.5 142.5t180.5 44.5q77 0 133.5 -17t87.5 -49t48 -71.5t17 -91t-7 -99.5t-23 -105l-88 -366q-7 -26 -6 -44.5t11.5 -28.5t39 -9t76.5 14q8 -14 8 -36q1 -14 -3 -32 q-10 -44 -36 -75q-54 -32 -94 -45.5t-101 -13.5q-90 0 -118 53q-14 26 -14 67.5t14 98.5l98 395q18 72 18 122q-1 50 -19 78q-36 54 -151 54q-75 0 -162 -51t-169 -138l-146 -659q-47 -19 -107 -21h-9q-54 0 -91 21z" />
<glyph unicode="o" horiz-adv-x="1185" d="M172 354q0 132 40 246t105.5 193.5t151 136.5t176.5 84.5t180 27.5q109 0 189 -29t126.5 -81.5t68.5 -118t22 -145.5q0 -191 -82.5 -350.5t-232.5 -253.5q-147 -92 -328 -91h-8q-114 1 -197 34t-127.5 89.5t-64 120t-19.5 137.5zM387 397q0 -106 55 -174.5t170 -68.5 q88 0 159.5 30.5t116.5 78.5t75 110.5t42.5 121.5t12.5 117q0 47 -11.5 88t-36 77.5t-70 57.5t-107.5 21q-73 0 -145.5 -33.5t-130.5 -92t-94 -146t-36 -187.5z" />
<glyph unicode="p" horiz-adv-x="1206" d="M20 -469q31 116 100 361t108 389.5t86.5 352t74.5 382.5q57 22 101 26q15 2 30 2q30 0 62 -6l-17 -135q102 77 187.5 111.5t193.5 34.5q140 0 227 -84t87 -258q0 -242 -111 -424t-313 -257q-99 -36 -216 -36q-125 0 -272 41l-129 -488q-61 -18 -125 -18q-37 0 -74 6z M397 231q130 -55 237 -55q55 0 103 14q142 44 220.5 170t78.5 295q0 207 -196 207q-158 0 -332 -174z" />
<glyph unicode="q" horiz-adv-x="1236" d="M178 373q0 143 52.5 269.5t138.5 213t197.5 136.5t228.5 50q86 0 147.5 -17.5t99.5 -46.5t78 -79l74 143q43 2 65 2q15 0 21 -1q16 -2 68 -19q-314 -1105 -314 -1264q0 -58 27 -76q13 -8 35 -8t53 9q10 -12 15.5 -38t3 -57t-25 -61.5t-63.5 -46.5q-39 -8 -94 -8 q-112 0 -154 74q-23 39 -23 101q0 53 17 122l90 372q-169 -153 -403 -153q-88 0 -154 31t-104.5 85t-57 121t-18.5 146zM401 430q0 -106 48 -171.5t125 -78.5q17 -4 36 -4q65 0 146 36q104 46 209 150l102 377q-73 69 -154 99q-66 24 -126 24q-14 0 -27 -1 q-73 -7 -139.5 -43t-114.5 -94t-76.5 -134.5t-28.5 -159.5z" />
<glyph unicode="r" horiz-adv-x="835" d="M141 -2q15 62 76.5 290t99 395t62.5 333q69 31 132 31q33 0 64 -9l-28 -180q78 87 161.5 139t153.5 52q75 0 120.5 -34.5t45.5 -96.5q0 -87 -62 -140q-49 -42 -102 -42q-14 0 -28 3q7 33 7 57q1 25 -7 42q-14 32 -64 32q-129 0 -268 -194l-162 -676q-46 -26 -112 -27h-4 q-62 0 -85 25z" />
<glyph unicode="s" horiz-adv-x="1069" d="M123 78q-1 6 -1 12q0 41 34 98q39 66 90 97q56 -50 162 -88.5t194 -38.5q232 0 232 110q0 26 -28.5 51t-74 47.5t-100 47t-109.5 55.5t-100.5 66.5t-74 86t-28.5 109.5q0 100 63 173.5t166 109t232 35.5q280 0 389 -72q-3 -48 -37.5 -104.5t-78.5 -67.5 q-34 28 -123.5 48.5t-151.5 20.5q-239 0 -239 -108q0 -29 21 -54.5t56 -44t79 -39.5t90.5 -40t90.5 -46t79 -57t56 -73.5t21 -94.5q0 -46 -13 -91t-47.5 -92.5t-88 -82.5t-142 -57.5t-200.5 -22.5q-115 0 -239.5 29.5t-178.5 77.5z" />
<glyph unicode="t" horiz-adv-x="905" d="M197 784q0 65 13.5 114.5t49.5 109.5l236 2l55 239q37 34 121 51q46 9 82 9q30 0 53 -6l-105 -277h342q0 -132 -45 -209l-340 25l-135 -482q-13 -45 -13 -78q0 -92 99 -92q132 0 211 91q35 -22 47 -79q3 -17 4 -33q0 -40 -20 -79q-48 -54 -132 -81t-188 -27 q-65 0 -114.5 16t-85.5 51t-42 92q-2 13 -1 28q0 48 16 110l162 563z" />
<glyph unicode="u" horiz-adv-x="1269" d="M223 379l162 633q37 5 71 12.5t44 9t42 3.5q9 1 19 1q23 0 47 -4l-151 -536q-19 -68 -23 -120q-1 -12 -1 -25q0 -39 10 -73q13 -44 54 -68t109 -24q74 0 162.5 46t163.5 124q59 284 182 672q23 6 41 9t29.5 4.5t29 0t25.5 -2t34 -5t40 -6.5q-86 -264 -141.5 -497 t-55.5 -289q0 -82 73 -82q20 0 46 6q8 -10 8 -29q0 -21 -9 -51q-18 -60 -48 -84q-47 -24 -121 -24q-79 0 -117 41q-28 30 -28 95q0 24 4 52q-218 -186 -437 -186q-286 0 -286 243q0 67 22 154z" />
<glyph unicode="v" horiz-adv-x="1202" d="M244 400q6 118 31.5 265t72.5 339q29 28 122 38q31 3 56 3q49 0 72 -13q-53 -198 -81 -352q-27 -154 -31 -253q-1 -18 -1 -34q0 -76 13 -129q16 -64 45.5 -90.5t72.5 -26.5q81 0 153.5 46t123 117t87.5 156.5t55 165.5t18 142q0 58 -17 92t-57 54q-12 12 -12 34 q0 25 16 64q30 73 76 96q105 -2 165 -77t60 -206q0 -104 -33 -222t-97.5 -231t-149.5 -205t-199.5 -148t-237.5 -56q-89 0 -152 24t-103 77t-56 133q-12 60 -13 141q0 27 1 56z" />
<glyph unicode="w" horiz-adv-x="1742" d="M220 393q26 227 151 615q21 29 112 34q15 1 28 1q66 0 83 -21q-65 -193 -100.5 -334.5t-45.5 -235.5q-3 -33 -3 -62q-1 -53 11 -90q18 -57 54.5 -81t97.5 -24q69 0 127 65t121 201q61 277 131 530q41 31 119 41q23 3 42 3q45 0 66 -17q-36 -139 -60.5 -250t-41 -208.5 t-19.5 -167.5q-1 -18 -1 -36q0 -48 6 -86q8 -50 32 -75t62 -25q76 0 144 45t113.5 113.5t79 149.5t49 154.5t15.5 127.5q0 74 -25.5 128.5t-70.5 76.5v6q0 41 38 87q41 50 97 56q79 -3 134 -83.5t55 -207.5q0 -90 -23.5 -188t-66 -192t-105.5 -179t-137 -149t-166.5 -102 t-189.5 -38q-120 -1 -193 89q-63 77 -63 205q0 21 2 44q-52 -124 -121 -204.5t-135 -112t-136 -31.5q-164 1 -229 101q-46 71 -46 206q0 55 8 121z" />
<glyph unicode="x" horiz-adv-x="1118" d="M57 68q280 288 494 456l-178 357q-13 24 -54 45q5 15 8.5 24t15 30t24 33.5t33.5 23.5t46 12q27 1 43 -0.5t35.5 -7.5t33.5 -21.5t24 -40.5l123 -324q191 162 391 385h14q158 0 172 -67q-16 -26 -54.5 -67t-97 -93.5t-108 -95.5t-122 -104.5t-103.5 -88.5l164 -336 q18 -38 51 -58q29 -17 58 -17h9q-1 -23 -8.5 -47.5t-24.5 -50.5q-17 -27 -50 -43q-31 -16 -73 -15h-5q-48 2 -89 29t-59 73l-133 347q-296 -267 -404 -431q-8 -1 -15 -1q-52 0 -99 25q-53 28 -62 69z" />
<glyph unicode="y" d="M45 -322q0 99 75.5 196.5t223.5 174.5q-92 83 -92 281q0 51 3 97t12.5 98.5t15 83t25 94t26 85.5t34 104t35.5 105q43 29 117 39q31 4 55 4q32 0 52 -8q-179 -438 -179 -666q0 -58 12 -103q32 -124 154 -124q49 0 92.5 20t86 65.5t81 128t70.5 198.5q73 263 121 487 q23 9 54 9q28 0 63 -7q72 -16 94 -41q-140 -399 -250 -905q-35 -165 -92 -287t-119.5 -191t-143 -110.5t-149.5 -54t-153 -12.5q-150 0 -237 69t-87 170zM258 -242q0 -57 47 -94t141 -37q166 0 267 123t159 397q-83 -90 -169 -126.5t-156 -36.5q-43 0 -88 10 q-99 -50 -150 -113t-51 -123z" />
<glyph unicode="z" horiz-adv-x="958" d="M54 55.5q0 25.5 12 48.5l749 727q-171 -25 -294 -25t-199 25q-24 9 -32 53q-2 12 -3 24q-1 33 15 67q20 46 65 55q71 -28 155 -38q77 -10 133 -9h11q58 1 146 6.5t122 5.5q55 13 90 13t51 -12q24 -18 24 -60q0 -15 -3 -33l-715 -708q116 18 250 18q118 0 250 -14 q11 -21 11 -58v-7q-1 -42 -21.5 -87t-49.5 -59q-89 22 -165 34q-64 10 -159 10h-35q-118 -2 -249 -26l-82 -20q-35 2 -56 23t-21 46.5z" />
<glyph unicode="{" horiz-adv-x="741" d="M133 -305q0 55 22 132.5t48.5 145t48.5 160t22 174.5q0 79 -24 115.5t-80 56.5q-15 18 -11.5 54.5t25.5 58.5q75 18 140 62.5t96 119.5q33 82 52 208t38 232.5t57 163.5q84 129 387 105q23 -8 20.5 -68.5t-30.5 -91.5q-9 -2 -64 -9t-92.5 -25.5t-62.5 -59.5t-37 -145 t-30 -220t-56 -184q-31 -55 -90.5 -89t-155.5 -59q150 -29 150 -186q0 -71 -36.5 -183.5t-73 -220.5t-36.5 -167q0 -49 29 -71.5t72 -22.5q3 -41 -11 -84t-30 -54q-42 -7 -92 -1t-93.5 19t-72.5 48t-29 86z" />
<glyph unicode="|" horiz-adv-x="636" d="M127 -424l422 1880q22 32 85.5 27.5t88.5 -41.5l-395 -1884q-35 -34 -116 -31q-70 3 -85 30q-4 9 0 19z" />
<glyph unicode="}" horiz-adv-x="698" d="M-17 -425q-4 23 1.5 55.5t21.5 58.5q5 0 22.5 2t24 2.5t22.5 3t24 5t21 7t22 10.5t19 14.5t19 18.5q25 31 41.5 115.5t24 174.5t28.5 193t54 162q30 54 94.5 92t142.5 52q-84 23 -128 64.5t-44 121.5q0 67 38.5 164.5t77 189t38.5 142.5q0 30 -12.5 51.5t-36.5 34 t-46.5 19t-54.5 11.5q-12 32 9 84t49 64q51 0 88.5 -2.5t82.5 -12.5t74 -27t48.5 -49.5t19.5 -76.5q0 -48 -21.5 -123.5t-48 -144t-48 -152t-21.5 -145.5q0 -72 30 -107.5t86 -50.5q12 -22 4.5 -73.5t-30.5 -69.5q-152 -20 -217 -177q-30 -73 -49.5 -172.5t-26.5 -178 t-24.5 -158.5t-45.5 -125q-40 -64 -145 -88t-215 -11q-9 9 -13 32z" />
<glyph unicode="~" horiz-adv-x="1046" d="M229 645q44 81 124.5 123.5t158.5 42.5q67 0 193.5 -39t156.5 -39q98 0 189 88q26 -7 44 -34.5t15 -53.5q-32 -92 -95.5 -153.5t-146.5 -61.5q-84 0 -211 42t-186 42q-118 0 -205 -67q-19 8 -30.5 46.5t-6.5 63.5z" />
<glyph unicode="&#xa1;" horiz-adv-x="630" d="M47 -436l328 1005q94 24 134 24q20 0 42 -3l-154 -1024q-118 -17 -176.5 -16.5t-173.5 14.5zM397 868q0 69 56.5 121.5t119.5 52.5q49 0 81 -34.5t32 -85.5q0 -72 -55.5 -126.5t-120.5 -54.5q-47 0 -80 36.5t-33 90.5z" />
<glyph unicode="&#xa2;" horiz-adv-x="1048" d="M180 387q0 144 48 263.5t128 198t176.5 126.5t202.5 63l21 195q33 26 101 22.5t101 -30.5l-71 -183q50 -4 89.5 -15.5t66 -30t44.5 -37.5t30 -46.5t18 -46.5t12 -47q-19 -62 -75 -98.5t-126 -50.5q-2 89 -38 135t-113 47q-97 1 -173 -31t-122.5 -88.5t-70 -128.5 t-23.5 -155q0 -120 60.5 -192t183 -80t306.5 81q18 -34 10 -86t-36 -86q-87 -58 -149.5 -78.5t-159.5 -23.5l-19 -187q-57 -29 -115.5 -23t-91.5 33l68 183q-75 12 -131 49.5t-88.5 93t-48 119t-15.5 135.5z" />
<glyph unicode="&#xa3;" horiz-adv-x="1388" d="M170 55q65 85 97.5 132t65.5 112.5t46 126.5q23 104 67 379l-194 -4q0 41 29 102t55 84h139l17 78q38 181 191 299.5t372 118.5q235 0 401 -105q10 -11 10 -34t-15 -54t-36 -60t-54 -53.5t-69 -33.5q-22 74 -113 117t-194 43q-105 0 -172 -63t-90 -167l-18 -86h425 q10 -20 -17 -81t-62 -83l-381 -12q-25 -163 -58 -309q-38 -180 -194 -312l22 -24q158 72 213 72q74 0 185.5 -19.5t136.5 -19.5q70 0 144.5 26.5t111.5 69.5q35 6 74 -14.5t47 -44.5q-62 -123 -159.5 -188.5t-211.5 -65.5q-80 0 -221 28.5t-178 28.5q-161 0 -355 -62 q3 -1 -9.5 18.5t-28 39.5t-19.5 20z" />
<glyph unicode="&#xa5;" horiz-adv-x="1071" d="M151.5 366q21.5 81 51.5 95l303 -10l29 98l-15 33l-289 -11q-22 24 0 106.5t48 90.5l174 -6l-217 571q25 47 101 94.5t140 40.5l185 -620l10 -154h20l88 156l459 618q67 16 127.5 -24t83.5 -90l-504 -592l215 12q14 -12 -10 -99t-59 -110l-301 15l-31 -37l-19 -90l332 14 q19 -19 -5.5 -105.5t-63.5 -109.5l-295 35l-58 -295q-58 -22 -143 -23.5t-125 23.5l80 299l-311 -33q-22 27 -0.5 108z" />
<glyph unicode="&#xa6;" horiz-adv-x="522" d="M53 -369l193 731q10 19 55 28.5t92.5 3t61.5 -28.5l-146 -717q-34 -36 -124 -42.5t-132 25.5zM319 727l146 717q33 38 122 45t130 -29l-193 -731q-15 -21 -63.5 -26.5t-92 2.5t-49.5 22z" />
<glyph unicode="&#xa7;" horiz-adv-x="1185" d="M137 -141q-2 51 47 128.5t95 90.5q141 -113 303 -113q32 0 63.5 6t62.5 20t50.5 41t19.5 64q0 31 -26 58.5t-68 50.5t-93 47t-101.5 54t-92.5 65t-68 86.5t-26 113.5q0 102 66.5 176t195.5 134q-123 100 -123 225q0 101 75 182.5t181.5 122.5t214.5 41q118 0 232 -18.5 t168 -53.5q-5 -51 -45 -116t-82 -78q-37 38 -117 64t-160 26q-212 0 -241 -117q-8 -35 14 -64.5t64 -53t95 -47.5t107.5 -54.5t99.5 -66.5t74 -90t29 -119q0 -102 -68 -180.5t-190 -125.5q115 -93 115 -221q0 -78 -43.5 -145.5t-112 -110.5t-151 -67.5t-162.5 -24.5 q-120 0 -234.5 18t-167.5 52zM530 641q0 -23 11.5 -43.5t42 -44t50 -36t72 -41.5t70.5 -40q64 30 106 72.5t42 89.5q0 19 -11 38.5t-24.5 34t-42 34.5t-48 31.5t-59.5 34.5t-59 34q-68 -29 -109 -74t-41 -90z" />
<glyph unicode="&#xa8;" horiz-adv-x="1146" d="M479 1358q80 104 180 147q45 -29 73 -63t48 -86q-77 -105 -186 -148q-81 50 -115 150zM936 1352q82 107 182 149q78 -52 119 -151q-75 -102 -182 -146q-83 49 -119 148z" />
<glyph unicode="&#xa9;" horiz-adv-x="1236" d="M279.5 841q3.5 82 29.5 173q62 218 238 345t416 120q126 -4 217.5 -46t137 -113.5t56.5 -168t-24 -207.5q-72 -252 -234 -380t-403 -126q-118 1 -205.5 32.5t-137 86t-72 128.5t-19 156zM471 985q-44 -195 32.5 -301t237.5 -106q168 0 283 93t158 279q44 187 -31 285.5 t-238 101.5q-69 2 -137.5 -19t-130 -62.5t-108 -111.5t-66.5 -159zM535 889q0 84 30 154.5t79.5 115.5t110 70.5t124.5 27.5q61 2 103 -8t64.5 -31.5t32.5 -42.5t15 -51q-17 -68 -123 -82q-6 107 -84 107q-98 0 -151.5 -65t-53.5 -160q0 -52 24 -88t65 -50t101.5 0t128.5 58 q19 -63 -10 -115q-50 -33 -73 -46t-62.5 -24.5t-87.5 -11.5q-117 0 -175 69.5t-58 172.5z" />
<glyph unicode="&#xab;" horiz-adv-x="1142" d="M158 539l518 487q53 -13 101 -62.5t34 -93.5l-457 -331l295 -314q-10 -49 -86.5 -105t-130.5 -59zM616 539l519 487q47 -11 94 -57t35 -92l-449 -338l285 -324q-13 -51 -82.5 -101t-124.5 -53z" />
<glyph unicode="&#xac;" horiz-adv-x="1085" d="M284.5 725.5q6.5 39.5 32.5 97.5l797 17l-102 -424q-40 -20 -94 -24.5t-93 7.5t-39 37l68 223l-567 -28q-9 55 -2.5 94.5z" />
<glyph unicode="&#xad;" horiz-adv-x="747" d="M272 442q-6 52 1.5 91t29.5 100l414 16q-2 -59 -11 -97t-40 -89z" />
<glyph unicode="&#xae;" horiz-adv-x="1236" d="M279.5 841q3.5 82 29.5 173q62 218 238 345t416 120q126 -4 217.5 -46t137 -113.5t56.5 -168t-24 -207.5q-72 -252 -234 -380t-403 -126q-118 1 -205.5 32.5t-137 86t-72 128.5t-19 156zM471 985q-44 -195 32.5 -301t237.5 -106q168 0 283 93t158 279q44 187 -31 285.5 t-238 101.5q-69 2 -137.5 -19t-130 -62.5t-108 -111.5t-66.5 -159zM557 692l119 549q82 23 196 23q112 0 177.5 -50.5t40.5 -142.5q-16 -60 -61.5 -105.5t-90.5 -58.5q8 -37 41 -102.5t55 -79.5q-3 -22 -54.5 -39.5t-86.5 -7.5q-49 31 -80 209q-47 0 -88 6l-35 -203 q-31 -10 -71 -10t-62 12zM735 985q37 -12 94 -12q68 0 106 27t38 77q0 35 -31.5 58.5t-87.5 23.5q-26 0 -88 -12z" />
<glyph unicode="&#xaf;" horiz-adv-x="722" d="M348.5 1319.5q8.5 66.5 36.5 81.5l539 16q11 -2 13.5 -18.5t-2 -39.5t-12 -47.5t-18 -44t-20.5 -26.5h-518q-27 12 -18.5 78.5z" />
<glyph unicode="&#xb0;" horiz-adv-x="425" d="M215 1151q0 124 93 216.5t218 92.5q91 0 146 -60t55 -151q0 -123 -93.5 -216t-217.5 -93q-90 0 -145.5 60.5t-55.5 150.5zM379 1178q0 -34 18.5 -56t51.5 -22q48 0 80 37t32 86q0 34 -18 55.5t-51 21.5q-48 0 -80.5 -36.5t-32.5 -85.5z" />
<glyph unicode="&#xb1;" horiz-adv-x="1255" d="M227 63q-7 53 8.5 107.5t45.5 95.5l813 17q30 -75 -56 -199zM332 726.5q0 96.5 18 102.5l338 -8l51 357q9 20 105 21t131 -17l-109 -363l348 17q28 -13 27 -89t-33 -106l-364 2l-33 -274q-20 -23 -116.5 -26t-104.5 22l67 276l-305 -14q-20 3 -20 99.5z" />
<glyph unicode="&#xb4;" horiz-adv-x="536" d="M416 1202l164 283q11 22 112 21t133 -23l-301 -303q-20 -10 -61 -1t-47 23z" />
<glyph unicode="&#xb5;" horiz-adv-x="1280" d="M2 -338q0 4 2 8l197 719l159 623q99 40 222 22l-152 -536q-19 -67 -22 -121.5t10.5 -99.5t55 -69t108.5 -20q68 3 161.5 49t157.5 97q67 325 189 698q28 6 47.5 9t38.5 2.5t29.5 -1.5t37 -4.5t45.5 -5.5q-173 -525 -231 -1030q-46 -28 -103.5 -33t-83.5 15l4 161 q-7 -5 -40.5 -29.5t-44.5 -32t-42 -27t-50.5 -27t-50 -19.5t-62 -18t-66.5 -8q-108 -8 -175.5 33t-76.5 130l-80 -469q-42 -33 -120 -36q-62 -3 -64 20z" />
<glyph unicode="&#xb6;" horiz-adv-x="1349" d="M291 864q0 282 192 444t543 162q102 0 201 -5t149 -9.5t178 -17.5q10 -52 -7.5 -122.5t-61.5 -103.5l-162 25l-336 -1489q-43 -43 -124.5 -45t-112.5 33l415 1517q-75 49 -202 19l-187 -768q-252 4 -368.5 93.5t-116.5 266.5z" />
<glyph unicode="&#xb8;" horiz-adv-x="653" d="M55 -403q-8 20 7.5 53t39 56t37.5 18q104 -42 158.5 -35.5t54.5 67.5q0 69 -168 90l160 252l141 -35l-102 -147q69 -11 102 -43t33 -90q0 -59 -24.5 -108.5t-69 -80.5t-101.5 -44.5t-127 -1.5t-141 49z" />
<glyph unicode="&#xbb;" horiz-adv-x="1144" d="M111 213l450 336l-285 323q11 45 81 99t124 55l277 -477l-518 -488q-47 13 -94 59t-35 93zM567 221l455 328l-297 317q10 51 84.5 104t132.5 56l275 -477l-512 -488q-53 12 -102.5 62t-35.5 98z" />
<glyph unicode="&#xbf;" horiz-adv-x="1054" d="M57 -147q0 74 24.5 141t65.5 120.5t91 102.5t106.5 95t107 88t95.5 91t69 97q62 13 107 6.5t96 -35.5q-19 -66 -67.5 -129t-105 -109.5t-119 -97t-112.5 -94.5t-83 -100t-33 -115q0 -69 44.5 -111.5t143.5 -42.5q206 0 342 82q23 -3 39.5 -26.5t16.5 -64.5t-23 -85 q-174 -127 -405 -127q-61 0 -116 9t-108 31.5t-91 57t-61.5 90t-23.5 126.5zM637 874q0 64 57.5 114t126.5 50q53 0 87 -34.5t34 -83.5q0 -63 -56 -115.5t-126 -52.5q-53 0 -88 35t-35 87z" />
<glyph unicode="&#xc0;" horiz-adv-x="1363" d="M6 61l877 1366q49 16 89 19t71 -2t87 -21l218 -1329q-56 -53 -118 -77.5t-157 -32.5l-29 428l-593 -19l-246 -416q-78 -7 -119 11.5t-80 72.5zM561 584l465 12l-74 610zM672 1673q-8 59 42.5 136t102.5 83l320 -225q-9 -40 -42.5 -85t-58.5 -46z" />
<glyph unicode="&#xc1;" horiz-adv-x="1363" d="M6 61l877 1366q49 16 89 19t71 -2t87 -21l218 -1329q-56 -53 -118 -77.5t-157 -32.5l-29 428l-593 -19l-246 -416q-78 -7 -119 11.5t-80 72.5zM561 584l465 12l-74 610zM893 1671l412 225q49 -6 66.5 -82t-15.5 -137l-426 -137q-23 1 -35.5 46t-1.5 85z" />
<glyph unicode="&#xc2;" horiz-adv-x="1363" d="M6 61l877 1366q49 16 89 19t71 -2t87 -21l218 -1329q-56 -53 -118 -77.5t-157 -32.5l-29 428l-593 -19l-246 -416q-78 -7 -119 11.5t-80 72.5zM561 584l465 12l-74 610zM694 1624l326 195q9 12 50 11.5t50 -11.5l248 -193q-2 -21 -39 -55t-67 -35l-244 86l-275 -90 q-30 4 -43.5 39t-5.5 53z" />
<glyph unicode="&#xc3;" horiz-adv-x="1363" d="M6 61l877 1366q49 16 89 19t71 -2t87 -21l218 -1329q-56 -53 -118 -77.5t-157 -32.5l-29 428l-593 -19l-246 -416q-78 -7 -119 11.5t-80 72.5zM561 584l465 12l-74 610zM702 1635.5q2 34.5 7 58.5q36 43 102 77.5t141 34.5q52 0 124 -34.5t108 -34.5q76 0 137 67 q21 5 55 -25t33 -69q-25 -80 -100 -126t-154 -46q-58 0 -124 30.5t-116 30.5q-77 0 -159 -59q-27 -1 -41.5 30t-12.5 65.5z" />
<glyph unicode="&#xc4;" horiz-adv-x="1363" d="M6 61l877 1366q49 16 89 19t71 -2t87 -21l218 -1329q-56 -53 -118 -77.5t-157 -32.5l-29 428l-593 -19l-246 -416q-78 -7 -119 11.5t-80 72.5zM561 584l465 12l-74 610zM678 1688q82 106 182 145q79 -50 117 -152q-68 -98 -184 -145q-77 48 -115 152zM1133 1683 q83 107 182 146q80 -48 119 -152q-69 -94 -185 -145q-44 27 -70 62t-46 89z" />
<glyph unicode="&#xc5;" horiz-adv-x="1363" d="M6 61l873 1362q-46 22 -71.5 62.5t-25.5 91.5q0 98 94 170t214 72q97 0 160 -51.5t63 -127.5q0 -70 -51 -128.5t-132 -90.5l218 -1327q-56 -53 -118 -77.5t-157 -32.5l-29 428l-593 -19l-246 -416q-78 -7 -119 11.5t-80 72.5zM561 584l465 12l-74 610zM973 1597 q0 -26 16.5 -42.5t40.5 -16.5q34 0 61 24.5t27 59.5q0 25 -15.5 41t-41.5 16q-32 0 -60 -23.5t-28 -58.5z" />
<glyph unicode="&#xc6;" horiz-adv-x="1888" d="M6 61l1053 1356q56 19 141 19l879 10q15 -53 2.5 -95.5t-56.5 -93.5l-665 5l-111 -396l631 31q19 -57 9.5 -107.5t-52.5 -105.5l-631 -6l-90 -492l719 58q21 -38 18 -80t-17 -75.5t-44 -78.5l-977 -20l111 422l-424 -19l-301 -416q-74 -9 -118 11t-77 73zM614 584l361 12 l182 680h-14l-205 -285z" />
<glyph unicode="&#xc7;" horiz-adv-x="1296" d="M213 510q0 134 31.5 254t86 212.5t128.5 170.5t159 132t177 92t182 55.5t176 17.5q123 0 225 -43.5t156 -126.5q-35 -77 -74.5 -118.5t-99.5 -51.5q-95 98 -262 98q-114 0 -226.5 -45t-203.5 -124t-148 -198.5t-57 -256.5q0 -190 110.5 -296t288.5 -106q138 0 301 66 q62 -91 0 -197q-168 -68 -362 -82l-62 -90q138 -18 138 -133q0 -75 -41 -131.5t-107 -82.5t-155 -18t-179 54q-10 31 26.5 88.5t57.5 52.5q98 -39 152.5 -39t64.5 45q6 39 -41 63.5t-127 32.5l97 160q-202 27 -307 175t-105 370z" />
<glyph unicode="&#xc8;" horiz-adv-x="1196" d="M127 -10l389 1446l877 10q13 -56 3 -94t-57 -95l-667 5l-109 -396l631 31q16 -55 7.5 -104t-50.5 -109l-631 -6l-90 -492l719 58q18 -39 16 -79t-16 -73.5t-45 -81.5zM756 1669q-8 59 42.5 136t102.5 83l320 -225q-9 -40 -42.5 -85t-58.5 -46z" />
<glyph unicode="&#xc9;" horiz-adv-x="1196" d="M127 -10l389 1446l877 10q13 -56 3 -94t-57 -95l-667 5l-109 -396l631 31q16 -55 7.5 -104t-50.5 -109l-631 -6l-90 -492l719 58q18 -39 16 -79t-16 -73.5t-45 -81.5zM819 1669l414 225q47 -6 64 -81.5t-15 -137.5l-424 -137q-24 1 -37 45.5t-2 85.5z" />
<glyph unicode="&#xca;" horiz-adv-x="1196" d="M127 -10l389 1446l877 10q13 -56 3 -94t-57 -95l-667 5l-109 -396l631 31q16 -55 7.5 -104t-50.5 -109l-631 -6l-90 -492l719 58q18 -39 16 -79t-16 -73.5t-45 -81.5zM649 1624l326 195q9 12 49 11.5t51 -11.5l248 -193q-3 -21 -40.5 -55t-68.5 -35l-243 86l-275 -90 q-29 4 -42 39t-5 53z" />
<glyph unicode="&#xcb;" horiz-adv-x="1191" d="M127 -10l389 1446l877 10q13 -56 3 -94t-57 -95l-667 5l-109 -396l631 31q16 -55 7.5 -104t-50.5 -109l-631 -6l-90 -492l719 58q18 -39 16 -79t-16 -73.5t-45 -81.5zM627 1688q86 107 182 145q82 -51 119 -152q-71 -98 -187 -145q-76 47 -114 152zM1083 1683 q79 106 183 146q77 -48 116 -152q-67 -95 -184 -145q-77 48 -115 151z" />
<glyph unicode="&#xcc;" horiz-adv-x="806" d="M79 86.5q16 51.5 54 87.5l143 -2l299 1090l-178 8q-23 29 -10 82.5t51 81.5h582q44 -84 -49 -187l-203 6l-248 -1093q162 -8 180 -8q25 -30 16 -76.5t-48 -75.5h-582q-23 35 -7 86.5zM487 1669q-8 59 43 136t103 83l317 -225q-8 -40 -40.5 -85t-57.5 -46z" />
<glyph unicode="&#xcd;" horiz-adv-x="806" d="M79 86.5q16 51.5 54 87.5l143 -2l299 1090l-178 8q-23 29 -10 82.5t51 81.5h582q44 -84 -49 -187l-203 6l-248 -1093q162 -8 180 -8q25 -30 16 -76.5t-48 -75.5h-582q-23 35 -7 86.5zM604 1584q-12 45 0 85l412 225q31 -4 51 -42t19.5 -85.5t-21.5 -91.5l-424 -137 q-25 1 -37 46z" />
<glyph unicode="&#xce;" horiz-adv-x="837" d="M81 86.5q16 51.5 54 87.5l144 -2l299 1090l-179 8q-23 29 -10 82.5t51 81.5h582q44 -84 -49 -187l-203 6l-248 -1093q162 -8 180 -8q25 -30 16 -76.5t-48 -75.5h-582q-23 35 -7 86.5zM449 1624l325 195q9 12 50 11.5t50 -11.5l248 -193q-2 -21 -39 -55t-67 -35l-244 86 l-274 -90q-30 4 -43.5 39t-5.5 53z" />
<glyph unicode="&#xcf;" horiz-adv-x="813" d="M66.5 87q15.5 55 50.5 87l145 -2l299 1090l-178 8q-22 25 -8 83t49 81h582q19 -44 4.5 -93t-56.5 -94l-202 6l-248 -1093l180 -8q24 -28 15 -76.5t-48 -75.5h-581q-19 32 -3.5 87zM412 1688q82 106 182 145q79 -50 117 -152q-68 -97 -185 -145q-76 47 -114 152zM866 1683 q83 107 185 146q77 -48 116 -152q-71 -97 -184 -145q-80 50 -117 151z" />
<glyph unicode="&#xd0;" horiz-adv-x="1523" d="M154 584q-7 51 0.5 93.5t31.5 102.5l226 2l151 596q298 97 547 97q224 0 363 -142t139 -389q0 -196 -72 -378.5t-191.5 -316t-284 -214t-341.5 -80.5q-272 0 -502 65l144 568zM446 186q121 -38 236.5 -43.5t217 20t187 85.5t147 147.5t96 211.5t34.5 272q0 236 -161 317 t-480 -6l-111 -404l303 5q-3 -112 -53 -191l-305 -8z" />
<glyph unicode="&#xd1;" horiz-adv-x="1484" d="M131 14l334 1364q44 48 113.5 60t123.5 -8l451 -1215l262 1210q50 24 120 26.5t112 -24.5l-394 -1419q-52 -42 -97 -54t-101 3l-471 1249l-242 -1196q-57 -25 -111 -22t-100 26zM784 1635.5q2 34.5 7 58.5q34 43 101 77.5t142 34.5q52 0 124 -34.5t108 -34.5q76 0 137 67 q19 6 54 -25t34 -69q-25 -80 -100 -126t-154 -46q-58 0 -124 30.5t-116 30.5q-77 0 -159 -59q-27 -1 -41.5 30t-12.5 65.5z" />
<glyph unicode="&#xd2;" horiz-adv-x="1484" d="M209 475q0 188 67.5 369.5t181 319.5t274.5 223t337 86q233 1 366.5 -149t133.5 -398q0 -147 -47.5 -292.5t-131 -265.5t-191 -213t-235 -144.5t-255.5 -51.5q-245 0 -372.5 122t-127.5 394zM442 526q0 -72 15.5 -131t49 -109.5t96 -79t149.5 -28.5q136 0 251.5 65.5 t189.5 172.5t115.5 240.5t41.5 273.5q0 330 -344 330q-155 0 -284 -94.5t-204.5 -263.5t-75.5 -376zM879 1667q-8 59 42.5 136t102.5 83l317 -225q-8 -40 -40.5 -85t-57.5 -46z" />
<glyph unicode="&#xd3;" horiz-adv-x="1484" d="M209 475q0 188 67.5 369.5t181 319.5t274.5 223t337 86q233 1 366.5 -149t133.5 -398q0 -147 -47.5 -292.5t-131 -265.5t-191 -213t-235 -144.5t-255.5 -51.5q-245 0 -372.5 122t-127.5 394zM442 526q0 -72 15.5 -131t49 -109.5t96 -79t149.5 -28.5q136 0 251.5 65.5 t189.5 172.5t115.5 240.5t41.5 273.5q0 330 -344 330q-155 0 -284 -94.5t-204.5 -263.5t-75.5 -376zM915 1669l414 225q47 -6 64 -81.5t-15 -137.5l-424 -137q-24 1 -37 45.5t-2 85.5z" />
<glyph unicode="&#xd4;" horiz-adv-x="1484" d="M209 475q0 188 67.5 369.5t181 319.5t274.5 223t337 86q233 1 366.5 -149t133.5 -398q0 -147 -47.5 -292.5t-131 -265.5t-191 -213t-235 -144.5t-255.5 -51.5q-245 0 -372.5 122t-127.5 394zM442 526q0 -72 15.5 -131t49 -109.5t96 -79t149.5 -28.5q136 0 251.5 65.5 t189.5 172.5t115.5 240.5t41.5 273.5q0 330 -344 330q-155 0 -284 -94.5t-204.5 -263.5t-75.5 -376zM782 1624l326 195q8 12 48.5 11.5t51.5 -11.5l248 -193q-3 -21 -40 -55t-68 -35l-244 86l-275 -90q-29 4 -42 39t-5 53z" />
<glyph unicode="&#xd5;" horiz-adv-x="1484" d="M209 475q0 188 67.5 369.5t181 319.5t274.5 223t337 86q233 1 366.5 -149t133.5 -398q0 -147 -47.5 -292.5t-131 -265.5t-191 -213t-235 -144.5t-255.5 -51.5q-245 0 -372.5 122t-127.5 394zM442 526q0 -72 15.5 -131t49 -109.5t96 -79t149.5 -28.5q136 0 251.5 65.5 t189.5 172.5t115.5 240.5t41.5 273.5q0 330 -344 330q-155 0 -284 -94.5t-204.5 -263.5t-75.5 -376zM798 1635.5q2 34.5 7 58.5q34 43 100.5 77.5t141.5 34.5q51 0 123 -34.5t108 -34.5q76 0 137 67q21 5 55 -25t33 -69q-16 -54 -58.5 -94t-93 -59t-100.5 -19 q-58 0 -124.5 30.5t-116.5 30.5q-80 0 -158 -59q-27 -1 -41.5 30t-12.5 65.5z" />
<glyph unicode="&#xd6;" horiz-adv-x="1484" d="M209 475q0 188 67.5 369.5t181 319.5t274.5 223t337 86q233 1 366.5 -149t133.5 -398q0 -147 -47.5 -292.5t-131 -265.5t-191 -213t-235 -144.5t-255.5 -51.5q-245 0 -372.5 122t-127.5 394zM442 526q0 -72 15.5 -131t49 -109.5t96 -79t149.5 -28.5q136 0 251.5 65.5 t189.5 172.5t115.5 240.5t41.5 273.5q0 330 -344 330q-155 0 -284 -94.5t-204.5 -263.5t-75.5 -376zM733 1688q82 106 182 145q79 -50 117 -152q-68 -98 -184 -145q-77 48 -115 152zM1190 1683q79 106 182 146q78 -49 117 -152q-67 -95 -184 -145q-77 48 -115 151z" />
<glyph unicode="&#xd7;" horiz-adv-x="1161" d="M307 483l297 238l-215 235q-7 13 74.5 81.5t122.5 86.5l174 -276l291 254q31 11 83.5 -33t49.5 -80l-316 -258l217 -227q2 -21 -80.5 -92t-103.5 -64l-188 252l-258 -225q-12 -6 -51 18t-70.5 53.5t-26.5 36.5z" />
<glyph unicode="&#xd8;" horiz-adv-x="1484" d="M209 473q0 189 67.5 371t181 320.5t274.5 223.5t337 85q109 0 197 -31l90 131q22 17 80 -6t80 -58l-101 -153q74 -67 114 -180.5t40 -249.5q0 -147 -47.5 -292.5t-131 -265.5t-191 -213t-235 -144.5t-255.5 -51.5q-112 0 -207 25l-111 -164q-28 -15 -100.5 1t-75.5 46 l127 194q-64 55 -98.5 162t-34.5 250zM442 526q0 -166 47 -237l347 526l297 432q-63 13 -127 13q-154 0 -283 -94.5t-205 -263.5t-76 -376zM645 188q52 -10 109 -10q136 0 251 65.5t189 172.5t115 240t41 272q0 158 -60 233l-368 -569z" />
<glyph unicode="&#xd9;" horiz-adv-x="1452" d="M246.5 311q-11.5 92 15.5 211l199 889q59 31 120.5 36.5t116.5 -17.5l-196 -803q-37 -157 -33.5 -265t71 -164.5t205.5 -56.5q78 0 142 25t109.5 67t83 107t62.5 134t48 159l207 801q53 16 127.5 11.5t99.5 -28.5l-238 -872q-41 -144 -114 -255.5t-167.5 -181.5 t-203.5 -105.5t-227 -35.5q-81 0 -151.5 19.5t-131.5 61t-97 106.5t-47.5 157zM788 1661q-8 59 42.5 136t101.5 83l319 -225q-8 -40 -40.5 -85t-59.5 -46z" />
<glyph unicode="&#xda;" horiz-adv-x="1452" d="M246.5 311q-11.5 92 15.5 211l199 889q59 31 120.5 36.5t116.5 -17.5l-196 -803q-37 -157 -33.5 -265t71 -164.5t205.5 -56.5q78 0 142 25t109.5 67t83 107t62.5 134t48 159l207 801q53 16 127.5 11.5t99.5 -28.5l-238 -872q-41 -144 -114 -255.5t-167.5 -181.5 t-203.5 -105.5t-227 -35.5q-81 0 -151.5 19.5t-131.5 61t-97 106.5t-47.5 157zM893 1669l414 225q31 -4 51 -42t19.5 -85.5t-21.5 -91.5l-424 -137q-24 1 -37 45.5t-2 85.5z" />
<glyph unicode="&#xdb;" horiz-adv-x="1452" d="M246.5 311q-11.5 92 15.5 211l199 889q59 31 120.5 36.5t116.5 -17.5l-196 -803q-37 -157 -33.5 -265t71 -164.5t205.5 -56.5q78 0 142 25t109.5 67t83 107t62.5 134t48 159l207 801q53 16 127.5 11.5t99.5 -28.5l-238 -872q-41 -144 -114 -255.5t-167.5 -181.5 t-203.5 -105.5t-227 -35.5q-81 0 -151.5 19.5t-131.5 61t-97 106.5t-47.5 157zM756 1624l325 195q9 12 49.5 11.5t51.5 -11.5l248 -193q-3 -21 -40 -55t-67 -35l-244 86l-276 -90q-29 4 -42 39t-5 53z" />
<glyph unicode="&#xdc;" horiz-adv-x="1452" d="M246.5 311q-11.5 92 15.5 211l199 889q59 31 120.5 36.5t116.5 -17.5l-196 -803q-37 -157 -33.5 -265t71 -164.5t205.5 -56.5q78 0 142 25t109.5 67t83 107t62.5 134t48 159l207 801q53 16 127.5 11.5t99.5 -28.5l-240 -872q-79 -283 -272 -430.5t-438 -147.5 q-81 0 -151.5 19.5t-131.5 61t-97 106.5t-47.5 157zM729 1688q86 107 182 145q81 -49 119 -152q-66 -94 -184 -145q-79 48 -117 152zM1186 1683q84 108 182 146q78 -49 117 -152q-67 -94 -185 -145q-43 27 -68.5 62.5t-45.5 88.5z" />
<glyph unicode="&#xdd;" horiz-adv-x="1200" d="M317 1335q26 45 104 93t140 38l215 -770l549 772q71 17 128 -22.5t79 -91.5q0 1 -172 -201.5t-344 -404.5l-172 -203l-109 -551q-60 -25 -139 -26.5t-127 26.5l152 557zM850 1584q-12 45 0 85l412 225q31 -4 51 -42t19.5 -85.5t-21.5 -91.5l-424 -137q-25 1 -37 46z" />
<glyph unicode="&#xde;" horiz-adv-x="1196" d="M127 -6l168 661l174 760q20 32 99 38.5t114 -19.5l-55 -189q116 17 198 17q229 0 366.5 -106t137.5 -292q0 -113 -44 -213t-116 -170t-164 -121t-187.5 -75.5t-186.5 -24.5q-104 0 -211 43l-51 -299q-81 -39 -120 -40.5t-106 25.5q-5 1 -8.5 2.5t-7.5 2.5zM485 494 q85 -31 183 -31q120 0 219.5 40.5t160 120.5t60.5 185q0 110 -78.5 180t-220.5 70q-105 0 -213 -31z" />
<glyph unicode="&#xdf;" horiz-adv-x="1185" d="M147 0l252 967q30 115 77.5 206t102 149t119 96t126 53.5t126.5 15.5q154 0 241 -70t87 -182q0 -63 -24.5 -117.5t-59.5 -93t-70 -74t-59.5 -76t-24.5 -83.5q0 -34 18.5 -70t41 -64.5t41 -78t18.5 -107.5q0 -104 -43 -204t-125 -174.5t-199.5 -99t-267.5 20.5 q-12 9 -15 34.5t3.5 56t26 61t47.5 47.5q117 -38 196 -10t119.5 91t40.5 144q0 73 -40 179.5t-40 148.5q0 47 19 88t46 73.5t54.5 67t46.5 83t19 106.5t-40.5 90.5t-115.5 32.5q-97 0 -184.5 -86.5t-124.5 -253.5l-213 -967q-47 -29 -112 -31.5t-110 31.5z" />
<glyph unicode="&#xe0;" d="M170 340q0 155 52 290.5t136.5 226t193 142.5t222.5 52q85 0 152 -29.5t98 -69.5l68 82q24 12 65 9.5t53 -19.5q-182 -691 -182 -774q0 -62 29 -76.5t92 -5.5q20 -22 -6 -90t-66 -96q-25 -2 -78 -2q-82 0 -119.5 47t-37.5 118q-90 -93 -170 -135.5t-195 -42.5 q-61 0 -115 22t-97.5 65.5t-69 117t-25.5 168.5zM377 406q0 -114 48 -181t144 -67q110 0 281 127l129 508q-38 38 -101.5 63t-132.5 25q-147 0 -257.5 -139t-110.5 -336zM653 1481q29 17 88 27.5t108.5 5.5t49.5 -29l37 -283q-32 -51 -121 -22z" />
<glyph unicode="&#xe1;" d="M170 340q0 155 52 290.5t136.5 226t193 142.5t222.5 52q85 0 152 -29.5t98 -69.5l68 82q24 12 65 9.5t53 -19.5q-182 -691 -182 -774q0 -62 29 -76.5t92 -5.5q20 -22 -6 -90t-66 -96q-25 -2 -78 -2q-82 0 -119.5 47t-37.5 118q-90 -93 -170 -135.5t-195 -42.5 q-61 0 -115 22t-97.5 65.5t-69 117t-25.5 168.5zM377 406q0 -114 48 -181t144 -67q110 0 281 127l129 508q-38 38 -101.5 63t-132.5 25q-147 0 -257.5 -139t-110.5 -336zM729 1202l164 283q11 22 112.5 21t133.5 -23l-299 -303q-22 -10 -63.5 -1t-47.5 23z" />
<glyph unicode="&#xe2;" d="M170 340q0 155 52 290.5t136.5 226t193 142.5t222.5 52q85 0 152 -29.5t98 -69.5l68 82q24 12 65 9.5t53 -19.5q-182 -691 -182 -774q0 -62 29 -76.5t92 -5.5q20 -22 -6 -90t-66 -96q-25 -2 -78 -2q-82 0 -119.5 47t-37.5 118q-90 -93 -170 -135.5t-195 -42.5 q-61 0 -115 22t-97.5 65.5t-69 117t-25.5 168.5zM377 406q0 -114 48 -181t144 -67q110 0 281 127l129 508q-38 38 -101.5 63t-132.5 25q-147 0 -257.5 -139t-110.5 -336zM541 1176l342 333q29 9 38 8.5t35 -8.5l207 -333q-18 -27 -61 -39t-86 0l-146 180l-225 -182 q-24 -6 -47.5 0t-40.5 18.5t-16 22.5z" />
<glyph unicode="&#xe3;" d="M170 340q0 155 52 290.5t136.5 226t193 142.5t222.5 52q85 0 152 -29.5t98 -69.5l68 82q24 12 65 9.5t53 -19.5q-182 -691 -182 -774q0 -62 29 -76.5t92 -5.5q20 -22 -6 -90t-66 -96q-25 -2 -78 -2q-82 0 -119.5 47t-37.5 118q-90 -93 -170 -135.5t-195 -42.5 q-61 0 -115 22t-97.5 65.5t-69 117t-25.5 168.5zM377 406q0 -114 48 -181t144 -67q110 0 281 127l129 508q-38 38 -101.5 63t-132.5 25q-147 0 -257.5 -139t-110.5 -336zM540 1282q1 31 7 53q35 42 97.5 78.5t121.5 36.5q54 0 125.5 -35t107.5 -35q34 0 56 13.5t59 52.5 q22 6 59 -18t37 -62q-24 -79 -88.5 -126.5t-142.5 -47.5q-58 0 -126.5 31.5t-119.5 31.5q-55 0 -133 -59q-28 0 -44.5 27.5t-15.5 58.5z" />
<glyph unicode="&#xe4;" d="M170 340q0 155 52 290.5t136.5 226t193 142.5t222.5 52q85 0 152 -29.5t98 -69.5l68 82q24 12 65 9.5t53 -19.5q-182 -691 -182 -774q0 -62 29 -76.5t92 -5.5q20 -22 -6 -90t-66 -96q-25 -2 -78 -2q-82 0 -119.5 47t-37.5 118q-90 -93 -170 -135.5t-195 -42.5 q-61 0 -115 22t-97.5 65.5t-69 117t-25.5 168.5zM377 406q0 -114 48 -181t144 -67q110 0 281 127l129 508q-38 38 -101.5 63t-132.5 25q-147 0 -257.5 -139t-110.5 -336zM500 1358q80 104 180 147q45 -29 73 -63t48 -86q-77 -104 -187 -148q-80 49 -114 150zM956 1352 q86 109 183 149q77 -51 118 -151q-75 -102 -182 -146q-83 49 -119 148z" />
<glyph unicode="&#xe5;" d="M170 340q0 155 52 290.5t136.5 226t193 142.5t222.5 52q85 0 152 -29.5t98 -69.5l68 82q24 12 65 9.5t53 -19.5q-182 -691 -182 -774q0 -62 29 -76.5t92 -5.5q20 -22 -6 -90t-66 -96q-25 -2 -78 -2q-82 0 -119.5 47t-37.5 118q-90 -93 -170 -135.5t-195 -42.5 q-61 0 -115 22t-97.5 65.5t-69 117t-25.5 168.5zM377 406q0 -114 48 -181t144 -67q110 0 281 127l129 508q-38 38 -101.5 63t-132.5 25q-147 0 -257.5 -139t-110.5 -336zM686 1303q0 80 75.5 143t170.5 63q73 0 120.5 -45t47.5 -108q0 -79 -74.5 -141t-169.5 -62 q-75 0 -122.5 43.5t-47.5 106.5zM815 1315q0 -27 17.5 -46.5t44.5 -19.5q34 0 63 29t29 65q0 28 -16.5 47t-43.5 19q-34 0 -64 -29t-30 -65z" />
<glyph unicode="&#xe6;" horiz-adv-x="1699" d="M164 317q0 159 51 297.5t137.5 233.5t201.5 149t241 54q229 0 344 -95q147 93 319 93q81 0 144 -15.5t100 -39.5t60.5 -56.5t31.5 -63t8 -63.5q0 -80 -25.5 -143t-69 -104.5t-104 -69.5t-127.5 -40.5t-142.5 -14t-146 5.5t-140.5 22q-17 -63 -14.5 -118t21.5 -95.5 t70 -64t133 -23.5q164 0 338 131q25 -22 37.5 -43.5t10.5 -56t-25 -78.5q-226 -161 -469 -139q-247 22 -305 225q-74 -110 -173 -174t-198 -64q-129 0 -219 90.5t-90 259.5zM375 395q0 -104 40 -170.5t111 -66.5q84 0 156 49t147 149q3 69 21 152q39 184 141 313 q-86 60 -225 60q-66 0 -135 -36.5t-126 -98.5t-93.5 -155t-36.5 -196zM1069 602q35 -9 93 -16t135 -6t142.5 13.5t111.5 51t46 98.5q0 53 -43 80t-118 27q-74 0 -133 -15t-97 -38t-66.5 -57.5t-43.5 -66t-27 -71.5z" />
<glyph unicode="&#xe7;" horiz-adv-x="1048" d="M180 389q0 123 36 229t97 181t140.5 130t165.5 83t174 32q86 4 151 -8t104 -33t65.5 -54t37.5 -63t18 -69q-36 -109 -198 -147q-2 88 -48.5 135t-140.5 47q-155 0 -267 -117t-112 -291q0 -115 68.5 -185t196.5 -76.5t313 75.5q12 -53 7.5 -86.5t-34.5 -85.5 q-141 -92 -327 -102l-47 -68q69 -11 102 -43t33 -90q0 -59 -24.5 -108.5t-69 -80.5t-102 -44.5t-128 -1.5t-141.5 49q-7 20 9 53t39.5 56t37.5 18q104 -42 158.5 -35.5t54.5 67.5q0 69 -168 90l90 146q-77 13 -135 52t-91 94.5t-49 118t-16 132.5z" />
<glyph unicode="&#xe8;" horiz-adv-x="1101" d="M180 389q0 140 56 264t149 210t215.5 136t253.5 50q81 0 144 -16t100.5 -40.5t61 -57.5t32 -64t8.5 -64q0 -81 -29 -145t-78.5 -104t-116.5 -67t-139.5 -38t-153 -12.5t-151.5 6t-139 20.5q-28 -135 34.5 -218t225.5 -83q169 0 340 131q26 -23 38 -43.5t10 -55t-25 -79.5 q-227 -161 -475 -139q-165 14 -263 120.5t-98 288.5zM416 602q32 -9 95 -16.5t147.5 -7t159 13t126 50.5t51.5 99q0 109 -164 109q-92 0 -167.5 -22.5t-124 -60t-78.5 -78.5t-45 -87zM680 1481q29 17 88 27.5t109 5.5t49 -29l37 -283q-32 -51 -121 -22z" />
<glyph unicode="&#xe9;" horiz-adv-x="1101" d="M180 389q0 140 56 264t149 210t215.5 136t253.5 50q81 0 144 -16t100.5 -40.5t61 -57.5t32 -64t8.5 -64q0 -81 -29 -145t-78.5 -104t-116.5 -67t-139.5 -38t-153 -12.5t-151.5 6t-139 20.5q-28 -135 34.5 -218t225.5 -83q169 0 340 131q26 -23 38 -43.5t10 -55t-25 -79.5 q-227 -161 -475 -139q-165 14 -263 120.5t-98 288.5zM416 602q32 -9 95 -16.5t147.5 -7t159 13t126 50.5t51.5 99q0 109 -164 109q-92 0 -167.5 -22.5t-124 -60t-78.5 -78.5t-45 -87zM739 1202l164 283q11 22 112.5 21t133.5 -23l-299 -303q-22 -10 -63.5 -1t-47.5 23z" />
<glyph unicode="&#xea;" horiz-adv-x="1101" d="M180 389q0 140 56 264t149 210t215.5 136t253.5 50q81 0 144 -16t100.5 -40.5t61 -57.5t32 -64t8.5 -64q0 -81 -29 -145t-78.5 -104t-116.5 -67t-139.5 -38t-153 -12.5t-151.5 6t-139 20.5q-28 -135 34.5 -218t225.5 -83q169 0 340 131q26 -23 38 -43.5t10 -55t-25 -79.5 q-227 -161 -475 -139q-165 14 -263 120.5t-98 288.5zM416 602q32 -9 95 -16.5t147.5 -7t159 13t126 50.5t51.5 99q0 109 -164 109q-92 0 -167.5 -22.5t-124 -60t-78.5 -78.5t-45 -87zM547 1176l342 333q30 9 39 8.5t35 -8.5l206 -333q-15 -27 -58.5 -39t-88.5 0l-145 180 l-226 -182q-23 -6 -46.5 0t-41 18.5t-16.5 22.5z" />
<glyph unicode="&#xeb;" horiz-adv-x="1101" d="M180 389q0 140 56 264t149 210t215.5 136t253.5 50q81 0 144 -16t100.5 -40.5t61 -57.5t32 -64t8.5 -64q0 -81 -29 -145t-78.5 -104t-116.5 -67t-139.5 -38t-153 -12.5t-151.5 6t-139 20.5q-28 -135 34.5 -218t225.5 -83q169 0 340 131q26 -23 38 -43.5t10 -55t-25 -79.5 q-227 -161 -475 -139q-165 14 -263 120.5t-98 288.5zM416 602q32 -9 95 -16.5t147.5 -7t159 13t126 50.5t51.5 99q0 109 -164 109q-92 0 -167.5 -22.5t-124 -60t-78.5 -78.5t-45 -87zM496 1358q86 107 182 147q45 -29 71.5 -63t47.5 -86q-73 -104 -185 -148q-82 48 -116 150 zM954 1352q82 108 181 149q77 -51 118 -151q-75 -102 -182 -146q-80 47 -117 148z" />
<glyph unicode="&#xec;" horiz-adv-x="632" d="M203 172l205 848q70 14 116.5 13.5t108.5 -21.5l-172 -670q-34 -114 -12.5 -151t124.5 -5q19 -22 7.5 -75.5t-43.5 -96.5q-90 -44 -193 -41q-86 3 -124.5 51.5t-16.5 147.5zM373 1481q29 17 88 27.5t108.5 5.5t48.5 -29l37 -283q-32 -51 -120 -22z" />
<glyph unicode="&#xed;" horiz-adv-x="632" d="M203 174l205 846q68 14 113.5 13.5t109.5 -21.5l-170 -668q-34 -115 -13.5 -152.5t123.5 -5.5q19 -23 7.5 -77t-43.5 -95q-87 -44 -191 -41q-186 7 -141 201zM453 1202l163 283q11 22 112.5 21t133.5 -23l-301 -303q-20 -10 -61 -1t-47 23z" />
<glyph unicode="&#xee;" horiz-adv-x="643" d="M203 174l205 846q70 14 114.5 13.5t108.5 -21.5l-172 -668q-33 -117 -11 -153.5t125 -4.5q17 -23 5.5 -76t-43.5 -96q-90 -44 -191 -41q-187 7 -141 201zM246 1176l342 333q29 9 38.5 8.5t35.5 -8.5l206 -333q-15 -27 -58.5 -39t-88.5 0l-146 180l-225 -182 q-23 -6 -46.5 0t-41 18.5t-16.5 22.5z" />
<glyph unicode="&#xef;" horiz-adv-x="651" d="M201 174l205 846q70 14 114.5 13.5t108.5 -21.5l-174 -672q-33 -115 -10 -151t124 -3q19 -24 7 -76.5t-44 -95.5q-98 -44 -192 -41q-87 3 -125 52.5t-14 148.5zM240 1358q82 106 180 147q79 -50 121 -149q-80 -109 -187 -148q-79 46 -114 150zM627 1354q83 103 182 147 q41 -26 67.5 -62.5t49.5 -88.5q-77 -106 -183 -146q-82 51 -116 150z" />
<glyph unicode="&#xf0;" horiz-adv-x="1220" d="M187.5 394q5.5 86 33.5 181q40 136 137 242.5t213.5 160.5t229.5 54q161 0 229 -61q-46 123 -110 213l-150 -84q-53 -6 -93 45.5t-28 87.5l162 74q-74 72 -184 141q10 23 116 27.5t144 -11.5q57 -35 102 -75l168 77q19 -3 48.5 -36.5t46 -76.5t1.5 -67l-141 -33 q98 -140 135.5 -321t-0.5 -387q-58 -262 -223.5 -418.5t-398.5 -155.5q-121 1 -210 34.5t-139 90.5t-72 134.5t-16.5 163.5zM426 263.5q66 -115.5 238 -109.5q82 4 150 37t111.5 81.5t73.5 109.5t43 119.5t13 112.5q0 95 -56.5 163t-173.5 79q-140 13 -244.5 -61.5 t-150.5 -206.5q-70 -209 -4 -324.5z" />
<glyph unicode="&#xf1;" horiz-adv-x="1259" d="M141 0q29 118 90 342.5t92.5 368t51.5 305.5q34 31 99.5 37.5t96.5 -13.5l-24 -178q116 98 206.5 142.5t180.5 44.5q77 0 133.5 -17t87.5 -49t48 -71.5t17 -91t-7 -99.5t-23 -105l-88 -366q-7 -26 -6 -44.5t11.5 -28.5t39 -9t76.5 14q14 -24 4.5 -68.5t-35.5 -74.5 q-54 -32 -94 -45.5t-101 -13.5q-90 0 -118 53t0 166l98 395q36 145 -0.5 199.5t-151.5 54.5q-75 0 -162 -51t-169 -138l-146 -659q-47 -19 -107 -21t-100 21zM620 1282q1 31 7 53q32 41 95 78t122 37q54 0 126.5 -35t108.5 -35q34 0 56 13.5t59 52.5q22 6 59 -18t37 -62 q-24 -79 -88.5 -126.5t-142.5 -47.5q-58 0 -126.5 31.5t-119.5 31.5q-55 0 -133 -59q-28 0 -44.5 27.5t-15.5 58.5z" />
<glyph unicode="&#xf2;" horiz-adv-x="1185" d="M172 354q0 132 40 246t105.5 193.5t151 136.5t176.5 84.5t180 27.5q109 0 189 -29t126.5 -81.5t68.5 -118t22 -145.5q0 -191 -82.5 -350.5t-232.5 -253t-336 -91.5q-114 1 -197 34t-127.5 89.5t-64 120t-19.5 137.5zM387 397q0 -106 55 -174.5t170 -68.5q88 0 159.5 30.5 t116.5 78.5t75 110.5t42.5 121.5t12.5 117q0 47 -11.5 88t-36 77.5t-70 57.5t-107.5 21q-73 0 -145.5 -33.5t-130.5 -92t-94 -146t-36 -187.5zM715 1481q30 17 89 27.5t109 5.5t50 -29l34 -283q-28 -52 -120 -22z" />
<glyph unicode="&#xf3;" horiz-adv-x="1185" d="M172 354q0 132 40 246t105.5 193.5t151 136.5t176.5 84.5t180 27.5q109 0 189 -29t126.5 -81.5t68.5 -118t22 -145.5q0 -191 -82.5 -350.5t-232.5 -253t-336 -91.5q-114 1 -197 34t-127.5 89.5t-64 120t-19.5 137.5zM387 397q0 -106 55 -174.5t170 -68.5q88 0 159.5 30.5 t116.5 78.5t75 110.5t42.5 121.5t12.5 117q0 47 -11.5 88t-36 77.5t-70 57.5t-107.5 21q-73 0 -145.5 -33.5t-130.5 -92t-94 -146t-36 -187.5zM795 1202l166 283q11 22 112 21t133 -23l-301 -303q-21 -10 -61.5 -1t-48.5 23z" />
<glyph unicode="&#xf4;" horiz-adv-x="1185" d="M172 354q0 132 40 246t105.5 193.5t151 136.5t176.5 84.5t180 27.5q109 0 189 -29t126.5 -81.5t68.5 -118t22 -145.5q0 -191 -82.5 -350.5t-232.5 -253t-336 -91.5q-114 1 -197 34t-127.5 89.5t-64 120t-19.5 137.5zM387 397q0 -106 55 -174.5t170 -68.5q88 0 159.5 30.5 t116.5 78.5t75 110.5t42.5 121.5t12.5 117q0 47 -11.5 88t-36 77.5t-70 57.5t-107.5 21q-73 0 -145.5 -33.5t-130.5 -92t-94 -146t-36 -187.5zM567 1176l340 333q30 9 39 8.5t35 -8.5l209 -333q-18 -27 -61.5 -39t-86.5 0l-147 180l-225 -182q-23 -6 -46 0t-40.5 18.5 t-16.5 22.5z" />
<glyph unicode="&#xf5;" horiz-adv-x="1185" d="M172 354q0 132 40 246t105.5 193.5t151 136.5t176.5 84.5t180 27.5q109 0 189 -29t126.5 -81.5t68.5 -118t22 -145.5q0 -191 -82.5 -350.5t-232.5 -253t-336 -91.5q-114 1 -197 34t-127.5 89.5t-64 120t-19.5 137.5zM387 397q0 -106 55 -174.5t170 -68.5q88 0 159.5 30.5 t116.5 78.5t75 110.5t42.5 121.5t12.5 117q0 47 -11.5 88t-36 77.5t-70 57.5t-107.5 21q-73 0 -145.5 -33.5t-130.5 -92t-94 -146t-36 -187.5zM583.5 1282q0.5 31 6.5 53q35 42 97.5 78.5t121.5 36.5q54 0 126.5 -35t108.5 -35q34 0 56 13.5t59 52.5q20 6 57 -18t37 -62 q-24 -79 -88.5 -126.5t-142.5 -47.5q-58 0 -125.5 31.5t-118.5 31.5q-55 0 -133 -59q-28 0 -45 27.5t-16.5 58.5z" />
<glyph unicode="&#xf6;" horiz-adv-x="1185" d="M172 354q0 132 40 246t105.5 193.5t151 136.5t176.5 84.5t180 27.5q109 0 189 -29t126.5 -81.5t68.5 -118t22 -145.5q0 -191 -82.5 -350.5t-232.5 -253t-336 -91.5q-114 1 -197 34t-127.5 89.5t-64 120t-19.5 137.5zM387 397q0 -106 55 -174.5t170 -68.5q88 0 159.5 30.5 t116.5 78.5t75 110.5t42.5 121.5t12.5 117q0 47 -11.5 88t-36 77.5t-70 57.5t-107.5 21q-73 0 -145.5 -33.5t-130.5 -92t-94 -146t-36 -187.5zM535 1358q80 104 180 147q45 -29 71.5 -63t47.5 -86q-73 -104 -185 -148q-80 49 -114 150zM991 1352q82 108 180 149 q81 -54 121 -151q-77 -101 -182 -146q-82 47 -119 148z" />
<glyph unicode="&#xf7;" horiz-adv-x="1077" d="M276 627q-7 51 1.5 93.5t31.5 106.5l815 17q-4 -65 -13 -105t-40 -92zM463 354q0 69 61.5 122.5t134.5 53.5q55 0 91 -37t36 -92q0 -69 -59 -121.5t-131 -52.5q-57 0 -95 37t-38 90zM618 1071q0 68 62.5 121t136.5 53q55 0 90 -37t35 -90q0 -71 -59 -123.5t-131 -52.5 q-58 0 -96 36t-38 93z" />
<glyph unicode="&#xf8;" horiz-adv-x="1181" d="M133 -74q45 62 119 156q-82 89 -82 270q0 132 40 246.5t105.5 194.5t151 137t176.5 84.5t180 27.5q111 0 193 -28l119 141q33 24 85.5 -3t49.5 -73l-121 -149q39 -44 59.5 -115t20.5 -147q0 -191 -82.5 -350.5t-232.5 -253t-336 -93.5q-94 0 -193 31l-137 -158 q-46 -9 -75 17t-40 65zM385 395q0 -83 18 -123q107 138 254 316l215 256q-38 12 -81 12q-73 0 -145.5 -33.5t-130.5 -92t-94 -146.5t-36 -189zM524 164q42 -10 86 -10q74 0 136.5 21t106 58t76.5 82.5t52 98.5t28 102.5t9 97.5q0 78 -23 125l-311 -391z" />
<glyph unicode="&#xf9;" horiz-adv-x="1269" d="M223 379l162 633q37 5 71 12.5t44 9t42.5 3.5t65.5 -3l-151 -536q-19 -68 -23 -120.5t9 -97t54 -68.5t109 -24q74 0 162.5 46t163.5 124q59 284 182 672q23 6 41 9t29.5 4.5t29 0t25.5 -2t34 -5t40 -6.5q-133 -404 -187 -725q-4 -23 -6.5 -39t-2.5 -34.5t3 -30.5 t11.5 -22.5t21.5 -14.5t34 -3.5t48 7.5q17 -20 -1 -79.5t-48 -84.5q-47 -24 -121 -24q-79 0 -117 41t-24 147q-218 -186 -437 -186q-366 0 -264 397zM725 1481q29 17 88 27.5t108.5 5.5t49.5 -29l37 -283q-32 -51 -123 -22z" />
<glyph unicode="&#xfa;" horiz-adv-x="1269" d="M223 379l162 633q37 5 71 12.5t44 9t42.5 3.5t65.5 -3l-151 -536q-19 -68 -23 -120.5t9 -97t54 -68.5t109 -24q74 0 162.5 46t163.5 124q59 284 182 672q23 6 41 9t29.5 4.5t29 0t25.5 -2t34 -5t40 -6.5q-133 -404 -187 -725q-4 -23 -6.5 -39t-2.5 -34.5t3 -30.5 t11.5 -22.5t21.5 -14.5t34 -3.5t48 7.5q17 -20 -1 -79.5t-48 -84.5q-47 -24 -121 -24q-79 0 -117 41t-24 147q-218 -186 -437 -186q-366 0 -264 397zM786 1202l164 283q11 22 112.5 21t133.5 -23l-301 -303q-20 -10 -61.5 -1t-47.5 23z" />
<glyph unicode="&#xfb;" horiz-adv-x="1269" d="M223 379l162 633q37 5 71 12.5t44 9t42.5 3.5t65.5 -3l-151 -536q-19 -68 -23 -120.5t9 -97t54 -68.5t109 -24q74 0 162.5 46t163.5 124q59 284 182 672q23 6 41 9t29.5 4.5t29 0t25.5 -2t34 -5t40 -6.5q-133 -404 -187 -725q-4 -23 -6.5 -39t-2.5 -34.5t3 -30.5 t11.5 -22.5t21.5 -14.5t34 -3.5t48 7.5q17 -20 -1 -79.5t-48 -84.5q-47 -24 -121 -24q-79 0 -117 41t-24 147q-218 -186 -437 -186q-366 0 -264 397zM573 1176l342 333q29 9 37.5 8.5t36.5 -8.5l207 -333q-18 -27 -61 -39t-86 0l-146 180l-225 -182q-24 -6 -47.5 0t-41 18.5 t-16.5 22.5z" />
<glyph unicode="&#xfc;" horiz-adv-x="1269" d="M223 379l162 633q37 5 71 12.5t44 9t42.5 3.5t65.5 -3l-151 -536q-19 -68 -23 -120.5t9 -97t54 -68.5t109 -24q74 0 162.5 46t163.5 124q59 284 182 672q23 6 41 9t29.5 4.5t29 0t25.5 -2t34 -5t40 -6.5q-86 -264 -141.5 -497t-55.5 -289q0 -105 119 -76q17 -20 -1 -79.5 t-48 -84.5q-47 -24 -121 -24q-79 0 -117 41t-24 147q-218 -186 -437 -186q-366 0 -264 397zM571 1358q80 103 181 147q82 -52 120 -149q-77 -105 -186 -148q-81 50 -115 150zM1028 1352q82 107 182 149q78 -52 119 -151q-75 -102 -182 -146q-83 49 -119 148z" />
<glyph unicode="&#xfd;" d="M45 -322q0 99 75.5 196.5t223.5 174.5q-92 83 -92 281q0 51 3 97t12.5 98.5t15 83t25 94t26 85.5t34 104t35.5 105q43 29 116.5 38.5t107.5 -3.5q-224 -549 -167 -769q32 -124 154 -124q49 0 92.5 20t86 65.5t81 128t70.5 198.5q73 263 121 487q44 17 116.5 1.5 t94.5 -40.5q-140 -399 -250 -905q-35 -165 -92 -287t-119.5 -191t-143 -110.5t-149.5 -54t-153 -12.5q-150 0 -237 69t-87 170zM258 -242q0 -57 47 -94t141 -37q166 0 267 123t159 397q-83 -90 -169 -126.5t-156 -36.5q-43 0 -88 10q-99 -50 -150 -113t-51 -123zM799 1202 l164 283q11 22 112 21t133 -23l-301 -303q-20 -10 -61 -1t-47 23z" />
<glyph unicode="&#xfe;" horiz-adv-x="1255" d="M20 -469q18 67 87 323t109 409.5t97 381t95.5 411t60.5 324.5q96 36 231 17l-125 -500q60 68 153 107.5t185 44.5q191 11 293.5 -73t102.5 -265q0 -131 -34 -246t-96 -202.5t-150.5 -150t-193.5 -93.5t-230 -29t-257 41l-129 -488q-106 -27 -199 -12zM397 231 q147 -66 272.5 -56t217.5 74t144 171.5t52 236.5q0 99 -51 149t-168 56q-74 3 -171 -39.5t-173 -111.5z" />
<glyph unicode="&#xff;" d="M45 -322q0 99 75.5 196.5t223.5 174.5q-92 83 -92 281q0 51 3 97t12.5 98.5t15 83t25 94t26 85.5t34 104t35.5 105q43 29 116.5 38.5t107.5 -3.5q-224 -549 -167 -769q32 -124 154 -124q49 0 92.5 20t86 65.5t81 128t70.5 198.5q73 263 121 487q44 17 116.5 1.5 t94.5 -40.5q-140 -399 -250 -905q-35 -165 -92 -287t-119.5 -191t-143 -110.5t-149.5 -54t-153 -12.5q-150 0 -237 69t-87 170zM258 -242q0 -57 47 -94t141 -37q166 0 267 123t159 397q-83 -90 -169 -126.5t-156 -36.5q-43 0 -88 10q-99 -50 -150 -113t-51 -123zM555 1358 q80 104 180 147q45 -29 73 -63t48 -86q-77 -105 -186 -148q-81 50 -115 150zM1012 1352q82 107 182 149q78 -52 119 -151q-75 -102 -183 -146q-81 48 -118 148z" />
<glyph unicode="&#x152;" horiz-adv-x="2187" d="M209 475q0 190 68 372t182 320t274.5 222t335.5 84q158 0 255.5 -45.5t141.5 -141.5l25 150l895 10q13 -53 2.5 -94t-55.5 -95l-668 5l-109 -396l631 31q18 -55 8 -105t-51 -106l-628 -6l-95 -494l721 58q22 -60 11 -113t-56 -121l-991 -20l43 125q-179 -156 -438 -156 q-245 0 -373.5 122t-128.5 394zM442 528q0 -73 15.5 -132.5t49.5 -110t97 -79t150 -28.5q136 0 251 65t189 172t115 240t41 273q0 332 -342 332q-117 0 -221.5 -55.5t-180 -151.5t-120 -233t-44.5 -292z" />
<glyph unicode="&#x153;" horiz-adv-x="1904" d="M172 354q0 133 40 247.5t106.5 194t152 137t176 84.5t178.5 27q311 0 373 -210q86 103 204.5 159t258.5 56q82 0 145.5 -15.5t100.5 -40t61 -57.5t32.5 -63.5t8.5 -63.5q0 -80 -28.5 -143.5t-77 -104.5t-115 -69t-139.5 -40t-153 -13.5t-153.5 6t-142.5 22.5 q-29 -135 35.5 -218t222.5 -83q167 0 342 131q26 -22 38.5 -43t10.5 -56t-26 -79q-227 -161 -475 -139q-243 21 -308 221q-173 -230 -460 -230q-92 0 -164.5 22.5t-117.5 59.5t-74 88t-40.5 103t-11.5 110zM387 397q0 -106 54.5 -174.5t168.5 -68.5q91 0 164 31.5t117.5 80 t75 112t42 122.5t11.5 116q0 47 -12 88t-37.5 76t-71.5 55.5t-108 20.5q-73 0 -145 -34t-129.5 -92.5t-93.5 -146t-36 -186.5zM1223 602q36 -8 100 -14.5t148.5 -5t157.5 13.5t124 49t51 94q0 54 -45 82.5t-119 28.5q-93 0 -168.5 -22.5t-124.5 -60t-79 -78.5t-45 -87z" />
<glyph unicode="&#x178;" horiz-adv-x="1200" d="M317 1335q26 45 104 93t140 38l215 -770l549 772q71 17 128 -22.5t79 -91.5q0 1 -172 -201.5t-344 -404.5l-172 -203l-109 -551q-60 -25 -139 -26.5t-127 26.5l152 557zM627 1688q82 106 182 145q79 -50 117 -152q-68 -97 -185 -145q-76 47 -114 152zM1081 1683 q84 108 183 146q77 -48 116 -152q-67 -95 -184 -145q-77 48 -115 151z" />
<glyph unicode="&#x2c6;" horiz-adv-x="950" d="M383 1176l342 333q29 9 38.5 8.5t35.5 -8.5l207 -333q-15 -27 -59.5 -39t-88.5 0l-145 180l-226 -182q-24 -6 -47.5 0t-40.5 18.5t-16 22.5z" />
<glyph unicode="&#x2dc;" horiz-adv-x="749" d="M308.5 1282q0.5 31 6.5 53q32 41 95 78t122 37q54 0 127 -35t109 -35q34 0 56 13.5t59 52.5q22 6 59 -18t37 -62q-24 -79 -88.5 -126.5t-142.5 -47.5q-58 0 -126.5 31.5t-119.5 31.5q-55 0 -133 -59q-28 0 -44.5 27.5t-16 58.5z" />
<glyph unicode="&#x2000;" horiz-adv-x="948" />
<glyph unicode="&#x2001;" horiz-adv-x="1896" />
<glyph unicode="&#x2002;" horiz-adv-x="948" />
<glyph unicode="&#x2003;" horiz-adv-x="1896" />
<glyph unicode="&#x2004;" horiz-adv-x="632" />
<glyph unicode="&#x2005;" horiz-adv-x="474" />
<glyph unicode="&#x2006;" horiz-adv-x="316" />
<glyph unicode="&#x2007;" horiz-adv-x="316" />
<glyph unicode="&#x2008;" horiz-adv-x="237" />
<glyph unicode="&#x2009;" horiz-adv-x="379" />
<glyph unicode="&#x200a;" horiz-adv-x="105" />
<glyph unicode="&#x2010;" horiz-adv-x="747" d="M272 442q-6 52 1.5 91t29.5 100l414 16q-2 -59 -11 -97t-40 -89z" />
<glyph unicode="&#x2011;" horiz-adv-x="747" d="M272 442q-6 52 1.5 91t29.5 100l414 16q-2 -59 -11 -97t-40 -89z" />
<glyph unicode="&#x2012;" horiz-adv-x="747" d="M272 442q-6 52 1.5 91t29.5 100l414 16q-2 -59 -11 -97t-40 -89z" />
<glyph unicode="&#x2013;" horiz-adv-x="1140" d="M239.5 723.5q6.5 34.5 30.5 97.5l953 17q2 -55 -8.5 -94.5t-40.5 -94.5l-934 -20q-7 60 -0.5 94.5z" />
<glyph unicode="&#x2014;" horiz-adv-x="1505" d="M166 485q-7 51 0 91t31 102l1402 16q-2 -58 -11 -97t-38 -91z" />
<glyph unicode="&#x2018;" horiz-adv-x="471" d="M340 1176q0 99 79.5 219.5t207.5 210.5q34 10 63 -9t29 -49q-121 -75 -195 -227q75 12 107.5 -28t32.5 -99q0 -72 -60.5 -123t-132.5 -51q-53 0 -92 41.5t-39 114.5z" />
<glyph unicode="&#x2019;" horiz-adv-x="471" d="M322 963q117 73 192 227q-74 -11 -106.5 27.5t-32.5 97.5q0 73 60.5 124.5t131.5 51.5q53 0 93 -42.5t40 -115.5q0 -98 -78.5 -216t-205.5 -212q-44 -15 -73 3.5t-21 54.5z" />
<glyph unicode="&#x201a;" horiz-adv-x="512" d="M66 -221q117 73 192 227q-39 -6 -68 3t-43.5 30t-21 44t-6.5 48q0 75 58.5 125.5t131.5 50.5q53 0 93 -42.5t40 -114.5q0 -99 -79.5 -219t-206.5 -212q-36 -9 -64.5 12t-25.5 48z" />
<glyph unicode="&#x201c;" horiz-adv-x="960" d="M342 1178q0 100 81.5 219t205.5 209q39 10 68 -9.5t24 -48.5q-121 -75 -195 -227q75 12 108.5 -27t33.5 -96q0 -78 -60 -128t-131 -50q-53 0 -94 43t-41 115zM813 1178q0 100 83 220t204 208q44 11 71 -6t21 -52q-121 -75 -195 -227q75 12 108.5 -27.5t33.5 -97.5 q0 -74 -60.5 -125t-132.5 -51q-51 0 -92 43t-41 115z" />
<glyph unicode="&#x201d;" horiz-adv-x="956" d="M319 958q123 78 195 228q-75 -12 -107 27t-32 98q0 75 61.5 125.5t128.5 50.5q52 0 92.5 -42.5t40.5 -115.5q0 -99 -78.5 -218.5t-205.5 -211.5q-42 -6 -70 10t-25 49zM791 958q118 73 194 228q-75 -12 -107 26t-32 95q0 75 58 127.5t132 52.5q54 0 93.5 -42t39.5 -116 q0 -98 -78 -216.5t-206 -213.5q-39 -8 -69.5 10.5t-24.5 48.5z" />
<glyph unicode="&#x201e;" horiz-adv-x="925" d="M66 -221q117 73 192 227q-75 -12 -107 26.5t-32 96.5q0 75 59 126.5t131 51.5q53 0 93 -42.5t40 -114.5q0 -99 -80 -218.5t-206 -212.5q-33 -9 -63 12t-27 48zM537 -221q114 70 192 227q-75 -12 -108 26.5t-33 96.5q0 75 59 126.5t131 51.5q55 0 95 -42t40 -115 q0 -99 -80.5 -219.5t-205.5 -211.5q-36 -9 -65.5 12t-24.5 48z" />
<glyph unicode="&#x2022;" horiz-adv-x="1243" d="M467 711q0 92 57 174t150.5 131t195.5 49q118 0 194.5 -74.5t76.5 -183.5q0 -92 -57.5 -173.5t-150.5 -129t-194 -47.5q-120 0 -196 73t-76 181zM627 838q23 -23 75 -17.5t97 31.5q49 27 70 57t10 54q-7 17 -31 23t-60.5 -1.5t-76.5 -28.5q-52 -27 -75 -61t-9 -57z M669 539.5q-1 -8.5 5 -11.5q117 -29 205 13q53 25 103.5 77.5t74.5 131.5q4 12 -11 12q-19 0 -24 -12q-29 -61 -65 -96.5t-95 -63.5q-79 -39 -176 -25q-4 1 -10 -8t-7 -17.5z" />
<glyph unicode="&#x2026;" horiz-adv-x="1980" d="M158 121q0 84 74 150.5t167 66.5q72 0 117 -47t45 -113q0 -84 -74.5 -150.5t-167.5 -66.5q-70 0 -115.5 47t-45.5 113zM809 121q0 84 75 150.5t167 66.5q72 0 116.5 -46.5t44.5 -113.5q0 -84 -74 -150.5t-167 -66.5q-70 0 -116 47t-46 113zM1479 121q0 84 74.5 150.5 t166.5 66.5q72 0 117 -47t45 -113q0 -84 -74.5 -150.5t-167.5 -66.5q-70 0 -115.5 47t-45.5 113z" />
<glyph unicode="&#x202f;" horiz-adv-x="379" />
<glyph unicode="&#x2039;" horiz-adv-x="684" d="M158 539l508 487q50 -13 100.5 -58t38.5 -91l-451 -338l287 -324q-12 -45 -87.5 -97t-131.5 -57z" />
<glyph unicode="&#x203a;" horiz-adv-x="686" d="M111 213l452 336l-289 323q12 46 89 98.5t131 55.5l264 -477l-506 -488q-50 13 -101.5 60t-39.5 92z" />
<glyph unicode="&#x205f;" horiz-adv-x="474" />
<glyph unicode="&#x20ac;" horiz-adv-x="1200" d="M156 440q-1 40 21.5 95t55.5 96l127 2q12 64 43 164l-157 -4q3 40 29 95t61 93l153 2q146 236 392 355t579 110q6 -48 -33 -116.5t-86 -108.5q-171 22 -325.5 -46t-272.5 -194h445q0 -53 -37.5 -99t-81.5 -69l-448 -12q-30 -73 -41 -166l417 10q-3 -95 -92 -188l-303 -10 q50 -135 171 -211t280 -70q2 -40 -19.5 -103t-64.5 -108q-291 4 -447 133t-174 350h-192z" />
<glyph unicode="&#x2122;" horiz-adv-x="2086" d="M337 1330q5 34 12.5 57t23.5 59l766 -6q-3 -53 -10.5 -86t-28.5 -86l-291 10l-164 -746q-48 -8 -70.5 -10.5t-56.5 -1t-67 11.5l194 754l-303 -14q-10 24 -5 58zM963 545l354 887q29 8 59 11t46 2.5t55 -4.5t53 -5l102 -408l4 -74h9l26 66l285 422q94 16 207 2l-43 -895 q-49 -32 -104 -38.5t-105 1.5l51 625l23 104h-17l-53 -123l-270 -393q-47 -20 -144 -20l-88 477v-2l12 90h-12l-39 -99l-213 -641q-63 -11 -107 -9.5t-91 24.5z" />
<glyph unicode="&#x25fc;" horiz-adv-x="1044" d="M0 0v1044h1044v-1044h-1044z" />
<glyph unicode="&#xfb01;" horiz-adv-x="1294" d="M-188 -451q2 42 41 112t75 81q70 -39 127 -39q69 0 107.5 66t75.5 217q135 558 219 878l-140 -14q-11 10 4.5 87t34.5 95l146 -10q65 245 197.5 353t328.5 108q49 0 101 -8.5t109.5 -28t93.5 -60.5t36 -98q0 -66 -47 -115t-113 -49q-45 0 -72.5 19t-40 46t-25 53.5 t-40 45.5t-72.5 19q-92 0 -155.5 -67t-106.5 -226l441 18q16 2 47 2q40 0 104 -22l-174 -682q-29 -116 -6 -146t123 2q18 -21 6.5 -75.5t-43.5 -96.5q-87 -44 -193 -41q-86 3 -124.5 51.5t-14.5 147.5l162 678l-371 10q-98 -367 -239 -936q-24 -97 -52.5 -169t-71 -134.5 t-102 -95.5t-135.5 -33q-58 0 -128 16t-113 41z" />
<glyph unicode="&#xfb02;" horiz-adv-x="1409" d="M-188 -451q2 41 41 111.5t75 81.5q67 -39 127 -39q71 0 109 67.5t76 223.5q144 591 217 870l-144 -14q-11 9 5 85.5t36 96.5l148 -10q122 461 475 461q97 0 227 -24.5t182 -51.5l-274 -1071q-20 -77 10.5 -115.5t98 -31.5t153.5 57q27 -19 30 -70.5t-30 -97.5 q-38 -49 -117.5 -80t-164.5 -31q-284 0 -213 303l247 1022q-69 17 -170 17q-91 0 -154.5 -68.5t-107.5 -226.5l193 10q5 -42 -9 -97t-38 -85l-187 18q-13 -49 -241 -940q-24 -96 -54 -169.5t-72.5 -134t-100 -92.5t-128.5 -32q-61 0 -131.5 16t-113.5 41z" />
</font>
</defs>
</svg>
